<svg width="30" height="30" viewBox="0 0 30 30" fill="none" xmlns="http://www.w3.org/2000/svg">
<path fill-rule="evenodd" clip-rule="evenodd" d="M14.9999 4.61638C12.6533 4.61638 10.7509 6.48949 10.7509 8.80008C10.7509 11.1107 12.6533 12.9838 14.9999 12.9838C17.3466 12.9838 19.249 11.1107 19.249 8.80008C19.249 6.48949 17.3466 4.61638 14.9999 4.61638ZM9.49902 8.80008C9.49902 5.80875 11.9619 3.38379 14.9999 3.38379C18.038 3.38379 20.5009 5.80875 20.5009 8.80008C20.5009 11.7914 18.038 14.2164 14.9999 14.2164C11.9619 14.2164 9.49902 11.7914 9.49902 8.80008ZM4.60976 11.7789C4.33719 11.5695 4.28013 11.176 4.48234 10.8999C4.68454 10.6239 5.06942 10.5698 5.342 10.7791L7.4799 12.421C7.75248 12.6304 7.80953 13.0239 7.60733 13.2999C7.40513 13.576 7.02024 13.6301 6.74767 13.4208L4.60976 11.7789ZM25.3996 11.7789C25.6722 11.5695 25.7293 11.176 25.5271 10.8999C25.3249 10.6239 24.94 10.5698 24.6674 10.7791L22.5295 12.421C22.2569 12.6304 22.1999 13.0239 22.4021 13.2999C22.6043 13.576 22.9892 13.6301 23.2617 13.4208L25.3996 11.7789ZM2.19373 13.8141C2.00315 13.753 1.79439 13.7854 1.63221 13.9014C1.47001 14.0173 1.37402 14.2027 1.37402 14.4001V24.0001C1.37402 24.3405 1.65426 24.6164 1.99995 24.6164H27.9999C28.3456 24.6164 28.6259 24.3405 28.6259 24.0001V14.4001C28.6259 14.2027 28.5299 14.0173 28.3677 13.9014C28.2055 13.7854 27.9967 13.753 27.8062 13.8141L27.8017 13.8155L27.7866 13.8203L27.7249 13.8397C27.6702 13.8568 27.5887 13.8821 27.4826 13.9145C27.2703 13.9791 26.96 14.0718 26.5699 14.1832C25.7895 14.406 24.6916 14.7033 23.4232 15.0005C20.8755 15.5975 17.6827 16.1838 14.9999 16.1838C12.3172 16.1838 9.12444 15.5975 6.57668 15.0005C5.3083 14.7033 4.21038 14.406 3.42999 14.1832C3.03993 14.0718 2.72957 13.9791 2.51733 13.9145C2.41122 13.8821 2.32966 13.8568 2.27496 13.8397L2.21335 13.8203L2.19819 13.8155L2.19373 13.8141ZM27.374 15.2351C27.2372 15.2753 27.0849 15.3195 26.9186 15.367C26.1233 15.5941 25.0053 15.8968 23.713 16.1996C21.1396 16.8027 17.8323 17.4164 14.9999 17.4164C12.1676 17.4164 8.8603 16.8027 6.28686 16.1996C4.99463 15.8968 3.87664 15.5941 3.08127 15.367C2.91499 15.3195 2.76274 15.2753 2.62588 15.2351V20.637H27.374V15.2351ZM2.62588 23.3838V21.5852H27.374V23.3838H2.62588Z" fill="#062B4E"/>
</svg>
