<svg width="121" height="120" viewBox="0 0 121 120" fill="none" xmlns="http://www.w3.org/2000/svg">
<path d="M85.7101 28.7219C81.8069 28.2632 82.1767 28.3049 82.1767 28.4717C82.1767 28.5551 82.0534 29.4725 81.8891 30.5151C81.7248 31.5576 81.6426 32.4333 81.6426 32.4333C81.7658 32.5584 88.7094 33.3091 93.1878 33.6844C97.8306 34.0597 103.254 34.3933 109.17 34.5601L112.211 34.6852V32.5167V30.3483H109.17C103.829 30.3066 93.1878 29.5976 85.7101 28.7219Z" fill="#062B4E"/>
<path d="M68.1647 85.4604C65.1654 84.7098 64.3436 84.1677 57.4411 78.3295C54.524 75.8691 51.5247 73.4087 50.7852 72.8665C49.265 71.6989 47.0874 70.6146 45.1974 69.9891C42.2392 69.03 41.4175 68.9883 27.1606 68.9883H1.93359V71.0734V73.1584L27.8179 73.2419C43.4307 73.3253 42.7323 73.2836 45.6905 74.7014C47.4572 75.5354 47.9091 75.8691 54.524 81.4988C57.5233 84.0009 60.5226 86.4613 61.2211 86.92C63.6041 88.5464 66.8088 89.6723 69.9314 90.0476C71.1229 90.1727 78.5184 90.2561 91.7893 90.2561H107.895L111.839 88.0876V85.9192H90.7621C70.5477 85.8358 69.6027 85.8358 68.1647 85.4604Z" fill="#062B4E"/>
<path d="M100.538 19.8814C100.333 19.6729 85.4598 18.0883 79.2147 17.9214C76.955 17.8797 74.2433 17.7963 73.2161 17.7546C72.189 17.7129 70.8742 17.7546 70.299 17.838C65.1221 18.547 59.7398 22.8839 54.3164 30.557C52.3032 33.3928 52.673 33.226 51.1528 32.0583C48.2357 29.8064 44.0038 27.763 40.5525 26.929C31.8422 24.9273 23.0087 26.8873 18.5303 31.8498C15.6132 35.0608 13.9286 39.9399 14.1752 44.402C14.5449 50.407 17.6264 55.2861 22.6389 57.7048C25.9669 59.2895 29.2949 59.9567 34.1431 59.915C37.5532 59.915 40.2239 59.498 42.689 58.5806L44.0038 58.0801L45.3596 58.9142C48.0302 60.5822 49.6737 61.9167 56.2064 68.0051C60.7259 72.1753 63.1911 74.0519 65.9439 75.428C68.9842 76.9293 67.0532 76.8459 90.8832 76.8876L116.192 76.9293V74.8442V72.7591H91.8282C79.0915 72.7591 71.0385 72.6757 70.3401 72.5506C67.7927 72.0919 64.8756 70.1319 59.8631 65.503C52.0156 58.1635 49.3039 56.0368 45.4418 54.1602L43.9627 53.4513L42.5247 54.0768C39.7308 55.2861 38.5393 55.5363 34.5539 55.6614C27.9801 55.8283 24.1591 54.7857 21.4474 52.1168C18.6536 49.3645 17.6264 44.3603 18.9001 39.5229C19.804 35.9366 21.6939 33.5596 24.6932 32.1417C26.8708 31.0992 28.3499 30.7656 31.5546 30.4736C37.4711 29.9732 42.9355 31.3911 47.4961 34.6438C48.4411 35.311 49.4272 36.1034 49.6737 36.3536L50.1256 36.854L48.6876 39.6063C47.907 41.1076 47.2496 42.442 47.2496 42.5254C47.2496 42.6088 48.0713 43.0675 49.0985 43.5263L50.9474 44.3603L52.3032 41.8165C57.9731 31.0158 63.9717 24.0516 69.0664 22.3418C70.3401 21.9248 70.5866 21.9248 76.3798 22.0499C82.9947 22.175 84.9668 22.5086 98.4431 23.3844C103.373 23.718 103.62 23.9682 103.825 23.9682C104.113 23.9682 104.195 23.6763 104.318 21.9665C104.483 20.8406 100.538 19.9231 100.538 19.8814Z" fill="#062B4E"/>
<path fill-rule="evenodd" clip-rule="evenodd" d="M60.0029 3.87097C28.9604 3.87097 3.8739 28.9575 3.8739 60C3.8739 91.0425 28.9604 116.129 60.0029 116.129C91.0454 116.129 116.132 91.0425 116.132 60C116.132 28.9575 91.0454 3.87097 60.0029 3.87097ZM0.00292969 60C0.00292969 26.8196 26.8225 0 60.0029 0C93.1833 0 120.003 26.8196 120.003 60C120.003 93.1804 93.1833 120 60.0029 120C26.8225 120 0.00292969 93.1804 0.00292969 60Z" fill="#062B4E"/>
<path d="M1.93652 44.5156H17.4204V48.3866H1.93652V44.5156Z" fill="#062B4E"/>
<path fill-rule="evenodd" clip-rule="evenodd" d="M53.7058 99.824C54.0736 100.257 54.6127 100.506 55.1805 100.506H56.1665C57.2355 100.506 58.102 99.6393 58.102 98.5704C58.102 97.5014 57.2355 96.6349 56.1665 96.6349H56.0754L55.9048 96.4342C55.2125 95.6198 53.991 95.5208 53.1766 96.2132C52.3622 96.9055 52.2632 98.127 52.9555 98.9414L53.7058 99.824ZM61.3308 98.5704C61.3308 99.6393 62.1973 100.506 63.2662 100.506H65.2384C66.3073 100.506 67.1739 99.6393 67.1739 98.5704C67.1739 97.5014 66.3073 96.6349 65.2384 96.6349H63.2662C62.1973 96.6349 61.3308 97.5014 61.3308 98.5704ZM70.4026 98.5704C70.4026 99.6393 71.2692 100.506 72.3381 100.506H74.3102C75.3792 100.506 76.2457 99.6393 76.2457 98.5704C76.2457 97.5014 75.3792 96.6349 74.3102 96.6349H72.3381C71.2692 96.6349 70.4026 97.5014 70.4026 98.5704ZM79.4744 98.5704C79.4744 99.6393 80.341 100.506 81.4099 100.506H83.3821C84.451 100.506 85.3176 99.6393 85.3176 98.5704C85.3176 97.5014 84.451 96.6349 83.3821 96.6349H81.4099C80.341 96.6349 79.4744 97.5014 79.4744 98.5704ZM88.5463 98.5704C88.5463 99.6393 89.4128 100.506 90.4818 100.506H92.4539C93.5229 100.506 94.3894 99.6393 94.3894 98.5704C94.3894 97.5014 93.5229 96.6349 92.4539 96.6349H90.4818C89.4128 96.6349 88.5463 97.5014 88.5463 98.5704ZM97.6181 98.5704C97.6181 99.6393 98.4847 100.506 99.5536 100.506H100.54C101.609 100.506 102.475 99.6393 102.475 98.5704C102.475 97.5014 101.609 96.6349 100.54 96.6349H99.5536C98.4847 96.6349 97.6181 97.5014 97.6181 98.5704ZM50.2818 92.8079C51.0963 92.1156 51.1952 90.8941 50.5029 90.0797L49.0024 88.3145C48.31 87.5001 47.0885 87.4011 46.2741 88.0935C45.4597 88.7858 45.3607 90.0073 46.053 90.8217L47.5536 92.5869C48.2459 93.4013 49.4674 93.5003 50.2818 92.8079ZM43.3793 84.6883C44.1938 83.9959 44.2927 82.7744 43.6004 81.96L42.8501 81.0774C42.4824 80.6448 41.9433 80.3955 41.3755 80.3955H40.518C39.4491 80.3955 38.5825 81.2621 38.5825 82.331C38.5825 83.3873 39.4287 84.246 40.4802 84.2661L40.6511 84.4672C41.3434 85.2816 42.5649 85.3806 43.3793 84.6883ZM7.88574 82.331C7.88574 83.4 8.75229 84.2665 9.82123 84.2665H10.6787C11.7476 84.2665 12.6142 83.4 12.6142 82.331C12.6142 81.2621 11.7476 80.3955 10.6787 80.3955H9.82123C8.75229 80.3955 7.88574 81.2621 7.88574 82.331ZM14.9169 82.331C14.9169 83.4 15.7834 84.2665 16.8523 84.2665H18.5672C19.6362 84.2665 20.5027 83.4 20.5027 82.331C20.5027 81.2621 19.6362 80.3955 18.5672 80.3955H16.8523C15.7834 80.3955 14.9169 81.2621 14.9169 82.331ZM22.8054 82.331C22.8054 83.4 23.672 84.2665 24.7409 84.2665H26.4558C27.5247 84.2665 28.3913 83.4 28.3913 82.331C28.3913 81.2621 27.5247 80.3955 26.4558 80.3955H24.7409C23.672 80.3955 22.8054 81.2621 22.8054 82.331ZM30.694 82.331C30.694 83.4 31.5605 84.2665 32.6295 84.2665H34.3444C35.4133 84.2665 36.2799 83.4 36.2799 82.331C36.2799 81.2621 35.4133 80.3955 34.3444 80.3955H32.6295C31.5605 80.3955 30.694 81.2621 30.694 82.331Z" fill="#062B4E"/>
</svg>
