<svg width="120" height="122" viewBox="0 0 120 122" fill="none" xmlns="http://www.w3.org/2000/svg">
<path fill-rule="evenodd" clip-rule="evenodd" d="M60 117.785C90.9279 117.785 116 92.7131 116 61.7852C116 30.8572 90.9279 5.78516 60 5.78516C29.0721 5.78516 4 30.8572 4 61.7852C4 92.7131 29.0721 117.785 60 117.785ZM60 121.785C93.1371 121.785 120 94.9222 120 61.7852C120 28.6481 93.1371 1.78516 60 1.78516C26.8629 1.78516 0 28.6481 0 61.7852C0 94.9222 26.8629 121.785 60 121.785Z" fill="#062B4E"/>
<path fill-rule="evenodd" clip-rule="evenodd" d="M57.957 109.785V89.7852H61.957V109.785H57.957Z" fill="#062B4E"/>
<path fill-rule="evenodd" clip-rule="evenodd" d="M5.1611 48.2022L56.5518 84.9207C57.7119 85.7496 58.4479 86.2718 59.0475 86.6051C59.6024 86.9135 59.8621 86.9549 60.0399 86.9549C60.2178 86.9549 60.4774 86.9135 61.0323 86.6051C61.6319 86.2718 62.3679 85.7496 63.528 84.9207L114.919 48.2022L117.244 51.4568L65.7687 88.2358C64.7184 88.9864 63.7974 89.6445 62.9756 90.1013C62.0871 90.5951 61.1442 90.9549 60.0399 90.9549C58.9356 90.9549 57.9927 90.5951 57.1042 90.1013C56.2824 89.6445 55.3615 88.9864 54.3111 88.2359L2.83569 51.4568L5.1611 48.2022Z" fill="#062B4E"/>
<path fill-rule="evenodd" clip-rule="evenodd" d="M3.1716 68.2073L56.4826 106.773C57.6513 107.619 58.3932 108.152 58.9981 108.492C59.558 108.807 59.82 108.849 59.9993 108.849C60.1787 108.849 60.4407 108.807 61.0006 108.492C61.6055 108.152 62.3474 107.619 63.5161 106.773L116.827 68.2073L119.172 71.4482L65.7754 110.076C64.717 110.841 63.7896 111.513 62.9615 111.978C62.0664 112.482 61.1151 112.849 59.9993 112.849C58.8836 112.849 57.9323 112.482 57.0372 111.978C56.2091 111.512 55.2816 110.841 54.2233 110.076L0.827098 71.4482L3.1716 68.2073Z" fill="#062B4E"/>
<path d="M63.957 71.7852C63.957 72.8897 62.1662 73.7852 59.957 73.7852C57.7479 73.7852 55.957 72.8897 55.957 71.7852C55.957 70.6806 57.7479 69.7852 59.957 69.7852C62.1662 69.7852 63.957 70.6806 63.957 71.7852Z" fill="#062B4E"/>
<path d="M64 55.7852C64 56.8897 62.2091 57.7852 60 57.7852C57.7909 57.7852 56 56.8897 56 55.7852C56 54.6806 57.7909 53.7852 60 53.7852C62.2091 53.7852 64 54.6806 64 55.7852Z" fill="#062B4E"/>
<path d="M88 55.7852C88 56.8897 86.2091 57.7852 84 57.7852C81.7909 57.7852 80 56.8897 80 55.7852C80 54.6806 81.7909 53.7852 84 53.7852C86.2091 53.7852 88 54.6806 88 55.7852Z" fill="#062B4E"/>
<path d="M100 47.7852C100 48.8897 98.2091 49.7852 96 49.7852C93.7909 49.7852 92 48.8897 92 47.7852C92 46.6806 93.7909 45.7852 96 45.7852C98.2091 45.7852 100 46.6806 100 47.7852Z" fill="#062B4E"/>
<path d="M40 55.7852C40 56.8897 38.2091 57.7852 36 57.7852C33.7909 57.7852 32 56.8897 32 55.7852C32 54.6806 33.7909 53.7852 36 53.7852C38.2091 53.7852 40 54.6806 40 55.7852Z" fill="#062B4E"/>
<path d="M28 47.7852C28 48.8897 26.2091 49.7852 24 49.7852C21.7909 49.7852 20 48.8897 20 47.7852C20 46.6806 21.7909 45.7852 24 45.7852C26.2091 45.7852 28 46.6806 28 47.7852Z" fill="#062B4E"/>
<path d="M76 63.7852C76 64.8897 74.2091 65.7852 72 65.7852C69.7909 65.7852 68 64.8897 68 63.7852C68 62.6806 69.7909 61.7852 72 61.7852C74.2091 61.7852 76 62.6806 76 63.7852Z" fill="#062B4E"/>
<path d="M52 63.7852C52 64.8897 50.2091 65.7852 48 65.7852C45.7909 65.7852 44 64.8897 44 63.7852C44 62.6806 45.7909 61.7852 48 61.7852C50.2091 61.7852 52 62.6806 52 63.7852Z" fill="#062B4E"/>
<path fill-rule="evenodd" clip-rule="evenodd" d="M62.8877 22.4544C63.623 22.9446 63.8217 23.938 63.3315 24.6732C56.7538 34.5397 57.7221 44.2562 58.124 48.2884C58.1896 48.9474 58.2402 49.4545 58.2402 49.7857C58.2402 50.6694 57.5238 51.3857 56.6402 51.3857C55.7565 51.3857 55.0402 50.6694 55.0402 49.7857C55.0402 49.5889 55.0012 49.2331 54.9468 48.7375C54.5476 45.0972 53.3216 33.9191 60.6689 22.8982C61.1591 22.1629 62.1525 21.9643 62.8877 22.4544Z" fill="#062B4E"/>
<path fill-rule="evenodd" clip-rule="evenodd" d="M54.4181 23.2448C54.2886 22.3707 54.8922 21.5571 55.7663 21.4276L64.025 20.2039C64.8991 20.0744 65.7127 20.678 65.8423 21.5522L67.0148 29.4658C67.1443 30.3399 66.5407 31.1535 65.6666 31.283C64.7925 31.4125 63.9789 30.8089 63.8493 29.9348L62.9113 23.6039L56.2353 24.593C55.3612 24.7226 54.5476 24.1189 54.4181 23.2448Z" fill="#062B4E"/>
<path fill-rule="evenodd" clip-rule="evenodd" d="M43.1338 22.6542C43.7586 23.279 43.7586 24.2921 43.1338 24.9169C40.4398 27.6109 39.0345 31.272 38.3168 34.6208C37.6033 37.9504 37.6023 40.8129 37.6023 41.7855C37.6023 42.6692 36.886 43.3855 36.0023 43.3855C35.1187 43.3855 34.4023 42.6692 34.4023 41.7855V41.7817C34.4023 40.7503 34.4023 37.6161 35.1879 33.9503C35.9703 30.2991 37.565 25.9602 40.8711 22.6542C41.4959 22.0293 42.509 22.0293 43.1338 22.6542Z" fill="#062B4E"/>
<path fill-rule="evenodd" clip-rule="evenodd" d="M34.4181 23.2448C34.2886 22.3707 34.8922 21.5571 35.7663 21.4276L44.025 20.2039C44.8991 20.0744 45.7127 20.678 45.8423 21.5522L47.0148 29.4658C47.1443 30.3399 46.5407 31.1535 45.6666 31.283C44.7925 31.4125 43.9789 30.8089 43.8493 29.9348L42.9113 23.6039L36.2353 24.593C35.3612 24.7226 34.5476 24.1189 34.4181 23.2448Z" fill="#062B4E"/>
<path fill-rule="evenodd" clip-rule="evenodd" d="M86.7139 22.7861C87.2659 23.4761 87.154 24.483 86.464 25.035C81.929 28.6631 79.5198 35.1768 78.4028 41.3217C77.852 44.3521 77.6323 47.2001 77.6053 49.3991C77.5917 50.4992 77.6266 51.4198 77.6883 52.1074C77.7192 52.452 77.7555 52.7216 77.7915 52.9169C77.8216 53.0805 77.8434 53.1455 77.8425 53.1458C77.8425 53.1458 77.8425 53.1458 77.8424 53.1457C78.1914 53.9447 77.8356 54.8787 77.0393 55.2416C76.2352 55.6079 75.2863 55.2531 74.92 54.449C74.7799 54.1415 74.6986 53.7906 74.6445 53.497C74.5853 53.1758 74.5378 52.8027 74.5011 52.3935C74.4275 51.5732 74.3909 50.5407 74.4055 49.3596C74.4346 46.9961 74.6691 43.9691 75.2544 40.7495C76.4096 34.3944 79.0002 26.9081 84.4649 22.5362C85.155 21.9842 86.1618 22.0961 86.7139 22.7861Z" fill="#062B4E"/>
<path fill-rule="evenodd" clip-rule="evenodd" d="M88.1926 20.5768C88.5902 20.8915 88.8292 21.3595 88.8408 21.846L89.0792 31.8463C89.1001 32.7209 88.3941 33.4029 87.5023 33.3697C86.6105 33.3365 85.8707 32.6006 85.8498 31.726L85.6595 23.7455L77.8866 25.338C77.0255 25.5145 76.1386 24.9625 75.9056 24.1053C75.6725 23.2481 76.1816 22.4101 77.0427 22.2337L86.8041 20.2337C87.2831 20.1356 87.7951 20.2621 88.1926 20.5768Z" fill="#062B4E"/>
</svg>
