<svg width="120" height="120" viewBox="0 0 120 120" fill="none" xmlns="http://www.w3.org/2000/svg">
<g clip-path="url(#clip0_61_1152)">
<path d="M102.122 18.0753C90.9058 6.85893 76.016 0.6875 60.0976 0.6875C44.2283 0.6875 29.2895 6.85893 18.0732 18.0753C6.9058 29.2916 0.734375 44.2304 0.734375 60.0997C0.734375 75.3814 6.46499 89.7814 16.8487 100.802C16.9956 101.145 17.2895 101.439 17.6323 101.585C17.7793 101.732 17.9752 101.928 18.1221 102.075C29.3385 113.292 44.2283 119.463 60.1466 119.463C76.016 119.463 90.9548 113.292 102.171 102.075C113.387 90.8589 119.559 75.9691 119.559 60.0508C119.51 44.2304 113.338 29.2916 102.122 18.0753ZM60.0976 4.60587C80.5711 4.60587 98.4976 15.7732 108.098 32.3283H22.1874C20.914 32.3283 19.8364 31.2997 19.8364 29.9773V22.1895C19.8364 22.1406 19.8364 22.0916 19.8364 21.9936C29.9262 11.3161 44.2772 4.60587 60.0976 4.60587ZM16.7017 25.5691V29.9773C16.7017 32.965 19.1507 35.463 22.1874 35.463H109.812C113.534 42.9079 115.592 51.2834 115.592 60.1487C115.592 65.1936 114.906 70.0916 113.632 74.7446L111.281 76.8508C110.792 77.2916 110.204 77.4875 109.567 77.4385C108.93 77.3895 108.343 77.0957 107.951 76.6059L107.02 75.5283C105.992 74.2548 104.473 73.5691 102.808 73.5691C101.143 73.5691 99.6732 74.3038 98.5956 75.5283L98.1058 76.1161C97.665 76.6548 97.0283 76.9487 96.2936 76.9487C95.6078 76.9487 94.9221 76.6548 94.4813 76.1161L93.9915 75.5283C92.9629 74.2548 91.4446 73.5691 89.7793 73.5691C88.1629 73.5691 86.6446 74.3038 85.567 75.5283L85.0772 76.1161C84.6364 76.6548 83.9997 76.9487 83.265 76.9487C82.5793 76.9487 81.8936 76.6548 81.4527 76.1161L80.963 75.5283C79.9344 74.3038 78.416 73.5691 76.7507 73.5691C75.1344 73.5691 73.616 74.3038 72.5385 75.5283L72.0487 76.1161C71.6078 76.6548 70.9711 76.9487 70.2364 76.9487C69.5017 76.9487 68.865 76.6548 68.4242 76.1161L67.9344 75.5283C66.9058 74.2548 65.3874 73.5691 63.7221 73.5691C62.1058 73.5691 60.5874 74.3038 59.5099 75.5283L59.0201 76.1161C58.5793 76.6548 57.9425 76.9487 57.2078 76.9487C56.4732 76.9487 55.8364 76.6548 55.3956 76.1161L54.9058 75.5283C53.8772 74.2548 52.3589 73.5691 50.6936 73.5691C49.0772 73.5691 47.5589 74.3038 46.4813 75.5283L45.9915 76.1161C45.5507 76.6548 44.914 76.9487 44.1793 76.9487C43.4936 76.9487 42.8078 76.6548 42.367 76.1161L41.8772 75.5283C40.8487 74.2548 39.3303 73.5691 37.665 73.5691C35.9997 73.5691 34.5303 74.3038 33.4527 75.5283L32.9629 76.1161C32.5221 76.6548 31.8854 76.9487 31.1507 76.9487C30.416 76.9487 29.7793 76.6548 29.3385 76.1161L28.9466 75.6263C27.8691 74.3528 26.3017 73.6181 24.6364 73.6671C22.9711 73.7161 21.4527 74.4508 20.4242 75.7732L18.8568 77.7814C18.318 78.4671 18.465 79.4467 19.1507 79.9855C19.8364 80.5242 20.816 80.3773 21.3548 79.6916L22.9221 77.6834C23.3629 77.1446 23.9997 76.8018 24.7344 76.8018C25.4691 76.8018 26.1058 77.0957 26.5956 77.6344L26.9874 78.1242C28.016 79.3977 29.5344 80.0834 31.1997 80.0834C32.865 80.0834 34.3344 79.3487 35.4119 78.1242L35.9017 77.5365C36.3425 76.9977 36.9793 76.7038 37.714 76.7038C38.4487 76.7038 39.0854 76.9977 39.5262 77.5365L40.016 78.1242C41.0446 79.3977 42.563 80.0834 44.2283 80.0834C45.8446 80.0834 47.3629 79.3487 48.4405 78.1242L48.9303 77.5365C49.3711 76.9977 50.0078 76.7038 50.7425 76.7038C51.4283 76.7038 52.114 76.9977 52.5548 77.5365L53.0446 78.1242C54.0732 79.3977 55.5915 80.0834 57.2568 80.0834C58.9221 80.0834 60.3915 79.3487 61.4691 78.1242L61.9589 77.5365C62.3997 76.9977 63.0364 76.7038 63.7711 76.7038C64.4568 76.7038 65.1425 76.9977 65.5834 77.5365L66.0732 78.1242C67.1017 79.3977 68.6201 80.0834 70.2854 80.0834C71.9507 80.0834 73.4201 79.3487 74.4976 78.1242L74.9874 77.5365C75.4283 76.9977 76.065 76.7038 76.7997 76.7038C77.4854 76.7038 78.1711 76.9977 78.6119 77.5365L79.1017 78.1242C80.1303 79.3977 81.6487 80.0834 83.314 80.0834C84.9303 80.0834 86.4487 79.3487 87.5262 78.1242L88.016 77.5365C88.4568 76.9977 89.0936 76.7038 89.8282 76.7038C90.514 76.7038 91.1997 76.9977 91.6405 77.5365L92.1303 78.1242C93.1589 79.3977 94.6772 80.0834 96.3425 80.0834C97.9589 80.0834 99.4772 79.3487 100.555 78.1242L101.045 77.5365C101.485 76.9977 102.122 76.7038 102.857 76.7038C103.592 76.7038 104.228 76.9977 104.669 77.5365L105.6 78.614C106.579 79.7406 107.902 80.4753 109.42 80.5732C109.567 80.5732 109.665 80.5732 109.812 80.5732C110.547 80.5732 111.281 80.4263 111.967 80.1324C111.036 82.5324 109.959 84.8344 108.685 87.0875C108.489 87.0385 108.294 86.9895 108.098 86.9895H22.1874C19.1997 86.9895 16.7017 89.4385 16.7017 92.4753V94.7283C9.15886 85.2263 4.60376 73.2263 4.60376 60.1977C4.60376 47.1691 9.15886 35.0712 16.7017 25.5691ZM60.0976 115.594C44.2772 115.594 29.9262 108.932 19.8364 98.2548V92.4263C19.8364 91.1528 20.865 90.0752 22.1874 90.0752H106.775C96.9303 105.406 79.6895 115.594 60.0976 115.594Z" fill="#062B4E"/>
<path d="M37.5676 54.8605C37.6656 54.8605 37.7145 54.8605 37.8125 54.8605C38.5962 54.8605 39.2329 54.3217 39.3309 53.5381L40.0656 48.6891C43.5431 52.1666 45.4533 57.9952 45.4533 65.0972C45.4533 65.9789 46.139 66.6646 47.0207 66.6646C47.9023 66.6646 48.588 65.9789 48.588 65.0972C48.588 57.9952 46.7758 51.9707 43.5431 47.8564L46.8247 48.3462C47.6574 48.4932 48.49 47.9054 48.588 47.0238C48.7349 46.1911 48.1472 45.3585 47.2656 45.2605L39.2329 44.085C38.4003 43.9381 37.5676 44.5258 37.4696 45.4075L36.2452 53.0972C36.0982 53.9299 36.686 54.7136 37.5676 54.8605Z" fill="#062B4E"/>
<path d="M57.0612 54.8605C57.1591 54.8605 57.2081 54.8605 57.3061 54.8605C58.0897 54.8605 58.7265 54.3217 58.8244 53.5381L59.5591 48.6891C63.0367 52.1666 64.9469 57.9952 64.9469 65.0972C64.9469 65.9789 65.6326 66.6646 66.5142 66.6646C67.3959 66.6646 68.0816 65.9789 68.0816 65.0972C68.0816 57.9952 66.2693 51.9707 63.0367 47.8564L66.3183 48.3462C67.151 48.4932 67.9836 47.9054 68.0816 47.0238C68.2285 46.1911 67.6408 45.3585 66.7591 45.2605L58.7265 44.085C57.8938 43.9381 57.0612 44.5258 56.9632 45.4075L55.8367 53.1462C55.6408 53.9299 56.2285 54.7136 57.0612 54.8605Z" fill="#062B4E"/>
<path d="M76.5553 54.8605C76.6533 54.8605 76.7023 54.8605 76.8002 54.8605C77.5839 54.8605 78.2206 54.3217 78.3186 53.5381L79.0533 48.6891C82.5308 52.1666 84.441 57.9952 84.441 65.0972C84.441 65.9789 85.1267 66.6646 86.0084 66.6646C86.89 66.6646 87.5757 65.9789 87.5757 65.0972C87.5757 57.9952 85.7635 51.9707 82.5308 47.8564L85.8125 48.3462C86.6451 48.4932 87.4778 47.9054 87.5757 47.0238C87.7227 46.1911 87.1349 45.3585 86.2533 45.2605L78.2206 44.085C77.388 43.9381 76.5553 44.5258 76.4574 45.4075L75.3308 53.1462C75.1349 53.9299 75.7227 54.7136 76.5553 54.8605Z" fill="#062B4E"/>
</g>
<defs>
<clipPath id="clip0_61_1152">
<rect width="120" height="120" fill="white"/>
</clipPath>
</defs>
</svg>
