<svg width="120" height="137" viewBox="0 0 120 137" fill="none" xmlns="http://www.w3.org/2000/svg">
<circle cx="60" cy="60" r="58.2639" stroke="#062B4E" stroke-width="3.47222"/>
<path d="M59.9998 51.3008C59.4998 51.3008 57.5998 51.1008 53.3998 50.7008C51.6998 50.5008 49.6998 50.3008 49.3998 50.3008C49.2998 50.3008 49.1998 50.3008 49.0998 50.3008C47.7998 50.0008 46.3998 49.7008 45.0998 49.3008L44.5998 49.2008C43.0998 48.8008 41.1998 48.3008 40.0998 46.7008C38.8998 44.9008 38.9998 43.6008 39.1998 41.7008C39.3998 40.3008 39.5998 39.2008 39.7998 38.1008C39.8998 37.5008 39.9998 36.9008 40.0998 36.2008L30.5998 35.8008C29.1998 35.7008 27.9998 35.1008 27.0998 34.0008C26.1998 32.9008 25.8998 31.7008 25.9998 30.3008L26.3998 27.0008C26.5998 25.6008 27.2998 24.5008 28.2998 23.7008C29.3998 22.9008 30.6998 22.6008 31.9998 22.9008L38.9998 24.1008V22.3008C38.9998 20.8008 39.4998 18.7008 42.0998 17.3008C42.7998 16.9008 44.2998 16.0008 46.3998 16.6008C50.7998 17.9008 55.2998 18.6008 59.7998 18.6008C64.1998 18.6008 68.6998 17.9008 73.0998 16.6008C75.1998 16.0008 76.6998 16.8008 77.3998 17.3008C79.8998 18.8008 80.4998 20.9008 80.4998 22.4008V24.0008L87.5998 22.8008C88.8998 22.6008 90.1998 22.9008 91.2998 23.7008C92.3998 24.5008 93.0998 25.7008 93.1998 27.0008L93.5998 30.3008C93.7998 31.6008 93.3998 32.9008 92.4998 34.0008C91.5998 35.1008 90.3998 35.7008 89.0998 35.8008L79.4998 36.2008C79.5998 36.9008 79.6998 37.5008 79.7998 38.1008C79.9998 39.3008 80.1998 40.4008 80.3998 41.7008C80.5998 43.7008 80.7998 44.9008 79.5998 46.7008C78.4998 48.3008 76.5998 48.8008 75.0998 49.2008L74.5998 49.3008C69.9998 50.6008 64.9998 51.3008 59.9998 51.3008ZM49.7998 46.3008C50.3998 46.3008 51.6998 46.5008 53.8998 46.7008C56.0998 46.9008 59.4998 47.3008 59.9998 47.3008C64.5998 47.3008 69.2998 46.6008 73.7998 45.4008L74.2998 45.3008C75.0998 45.1008 76.2998 44.8008 76.4998 44.4008C76.8998 43.8008 76.8998 43.8008 76.6998 42.1008C76.4998 40.9008 76.3998 39.8008 76.1998 38.7008C75.9998 37.5008 75.7998 36.2008 75.4998 34.5008C75.3998 34.0008 75.5998 33.4008 75.9998 33.0008C76.3998 32.6008 76.8998 32.3008 77.3998 32.3008L89.0998 31.8008C89.2998 31.8008 89.4998 31.6008 89.5998 31.5008C89.6998 31.4008 89.7998 31.2008 89.7998 30.8008L89.3998 27.5008C89.3998 27.2008 89.1998 27.0008 89.0998 26.9008C88.9998 26.8008 88.7998 26.7008 88.4998 26.8008L78.9998 28.3008C78.3998 28.4008 77.7998 28.2008 77.3998 27.9008C76.9998 27.6008 76.6998 27.0008 76.6998 26.4008V22.3008C76.6998 21.6008 76.3998 21.2008 75.5998 20.7008C75.0998 20.4008 74.8998 20.3008 74.3998 20.4008C69.5998 21.8008 64.6998 22.5008 59.8998 22.6008C55.0998 22.6008 50.1998 21.8008 45.3998 20.4008C44.9998 20.3008 44.7998 20.4008 44.2998 20.7008C43.4998 21.1008 43.1998 21.6008 43.1998 22.3008V26.5008C43.1998 27.1008 42.8998 27.6008 42.4998 28.0008C42.0998 28.4008 41.4998 28.5008 40.8998 28.4008L31.4998 26.8008C31.1998 26.7008 30.9998 26.8008 30.7998 26.9008C30.5998 27.0008 30.4998 27.2008 30.4998 27.5008L30.0998 30.8008C30.0998 31.0008 30.0998 31.3008 30.2998 31.5008C30.3998 31.6008 30.5998 31.8008 30.8998 31.8008L42.4998 32.3008C43.0998 32.3008 43.5998 32.6008 43.8998 33.0008C44.2998 33.4008 44.3998 34.0008 44.3998 34.5008C44.1998 36.2008 43.9998 37.5008 43.6998 38.7008C43.4998 39.8008 43.2998 40.9008 43.1998 42.1008C42.9998 43.8008 42.9998 43.9008 43.3998 44.4008C43.6998 44.8008 44.7998 45.1008 45.5998 45.3008L46.0998 45.4008C47.3998 45.8008 48.5998 46.0008 49.7998 46.3008Z" fill="#062B4E"/>
<path d="M49.4998 78.4C49.3998 78.4 49.1998 78.4 49.0998 78.4C47.7998 78.1 46.3998 77.8 45.0998 77.4L44.5998 77.3C43.0998 76.9 41.1998 76.4 40.0998 74.8C38.8998 73 38.9998 71.7 39.1998 69.8C39.3998 68.4 39.5998 67.3 39.7998 66.2C39.8998 65.6 39.9998 65 40.0998 64.4L30.5998 64C29.1998 63.9 27.9998 63.3 27.0998 62.2C26.1998 61.2 25.8998 59.9 25.9998 58.5L26.3998 55.2C26.5998 53.9 27.2998 52.7 28.2998 51.9C29.2998 51.1 30.6998 50.8 31.9998 51.1L39.0998 52.3C38.9998 50.8 38.8998 46.3 41.5998 44.8C42.5998 44.3 43.7998 44.6 44.2998 45.6C44.7998 46.6 44.4998 47.8 43.4998 48.3C43.0998 48.6 42.7998 50.6 42.9998 52.1C42.9998 52.2 42.9998 52.2 42.9998 52.3V54.7C42.9998 55.3 42.6998 55.9 42.2998 56.2C41.7998 56.6 41.2998 56.7 40.6998 56.6L31.2998 55C30.9998 54.9 30.7998 55 30.5998 55.1C30.3998 55.2 30.2998 55.4 30.2998 55.7L29.8998 59C29.8998 59.3 29.9998 59.5 30.0998 59.7C30.1998 59.9 30.3998 60 30.6998 60L42.2998 60.5C42.8998 60.5 43.3998 60.8 43.6998 61.2C44.0998 61.6 44.1998 62.2 44.1998 62.7C43.9998 64.4 43.7998 65.7 43.4998 66.9C43.2998 68 43.0998 69.1 42.9998 70.3C42.7998 72 42.7998 72.1 43.1998 72.6C43.4998 73 44.5998 73.3 45.3998 73.5L45.8998 73.6C47.0998 73.9 48.3998 74.3 49.5998 74.5C50.6998 74.7 51.3998 75.8 51.1998 76.9C51.2998 77.8 50.4998 78.4 49.4998 78.4Z" fill="#062B4E"/>
<path d="M59.9994 79.4996C59.3994 79.4996 57.5994 79.2997 53.3994 78.7997C51.6994 78.5997 49.7994 78.3997 49.4994 78.3997C48.3994 78.2997 47.4994 77.3997 47.5994 76.2997C47.6994 75.1997 48.5994 74.3997 49.6994 74.3997C50.0994 74.3997 51.4994 74.5996 53.8994 74.7996C56.1994 74.9996 59.5994 75.3997 60.0994 75.3997C64.6994 75.3997 69.3994 74.6996 73.8994 73.4996L74.3994 73.3997C75.1994 73.1996 76.3994 72.8996 76.5994 72.4996C76.9994 71.8996 76.9994 71.8997 76.7994 70.1996C76.5994 68.9996 76.4994 67.8996 76.2994 66.7996C76.0994 65.5996 75.8994 64.2996 75.5994 62.5996C75.4994 61.9996 75.5994 61.4996 75.9994 60.9996C76.3994 60.4996 76.8994 60.2996 77.3994 60.2996L89.0994 59.7996C89.2994 59.7996 89.4994 59.5996 89.5994 59.4996C89.6994 59.3996 89.7994 59.1996 89.7994 58.7996L89.3994 55.4996C89.3994 55.1996 89.1994 54.9997 89.0994 54.8996C88.9994 54.7996 88.7994 54.6996 88.4994 54.7996L78.9994 56.4996C78.3994 56.5996 77.7994 56.3996 77.3994 56.0996C76.9994 55.6996 76.6994 55.1996 76.6994 54.5996V50.3997C76.6994 49.6997 76.3994 49.2996 75.5994 48.7996C74.5994 48.2996 74.2994 46.9996 74.8994 46.0996C75.4994 45.0996 76.6994 44.7997 77.5994 45.3997C80.0994 46.8997 80.6994 48.8997 80.6994 50.3997V52.1996L87.7994 50.9996C89.0994 50.7996 90.3994 51.0996 91.4994 51.7996C92.5994 52.5996 93.2994 53.7996 93.3994 55.0996L93.7994 58.3996C93.9994 59.6996 93.5994 61.0996 92.6994 62.0996C91.7994 63.0996 90.5994 63.7997 89.2994 63.8997L79.6994 64.2996C79.7994 64.9996 79.8994 65.5996 79.9994 66.1996C80.1994 67.3997 80.3994 68.4996 80.5994 69.7996C80.7994 71.6996 80.9994 72.9996 79.7994 74.7996C78.6994 76.3996 76.7994 76.8997 75.2994 77.2997L74.7994 77.3997C69.9994 78.7997 64.9994 79.4996 59.9994 79.4996Z" fill="#062B4E"/>
<path d="M59.9998 107.7C54.9998 107.7 49.9998 107 45.0998 105.6L44.5998 105.5C43.0998 105.1 41.1998 104.6 40.0998 103C38.8998 101.2 38.9998 99.9001 39.1998 97.9001C39.3998 96.5001 39.5998 95.4001 39.7998 94.3001C39.8998 93.7001 39.9998 93.1001 40.0998 92.5001L30.5998 92.1001C29.1998 92.0001 27.9998 91.4001 27.0998 90.3001C26.1998 89.2001 25.9998 88.0001 26.1998 86.6001L26.5998 83.3001C26.7998 82.0001 27.4998 80.8001 28.4998 80.0001C29.4998 79.2001 30.8998 78.9001 32.1998 79.2001L39.1998 80.4001C38.8998 78.1001 39.1998 74.2001 42.4998 73.0001C43.4998 72.6001 44.6998 73.1001 45.0998 74.2001C45.4998 75.2001 44.9998 76.4001 43.8998 76.8001C42.8998 77.2001 42.9998 79.4001 43.0998 80.1001C43.0998 80.2001 43.0998 80.3001 43.0998 80.5001V82.9001C43.0998 83.5001 42.7998 84.1001 42.3998 84.4001C41.9998 84.7001 41.3998 84.9001 40.7998 84.8001L31.3998 83.2001C31.0998 83.1001 30.8998 83.2001 30.6998 83.3001C30.4998 83.4001 30.3998 83.6001 30.3998 83.9001L29.9998 87.2001C29.9998 87.5001 30.0998 87.7001 30.1998 87.9001C30.2998 88.0001 30.4998 88.2001 30.7998 88.2001L42.3998 88.7001C42.9998 88.7001 43.4998 89.0001 43.7998 89.4001C44.1998 89.8001 44.2998 90.4001 44.2998 90.9001C44.0998 92.6001 43.8998 93.9001 43.5998 95.1001C43.3998 96.2001 43.1998 97.3001 43.0998 98.5001C42.8998 100.2 42.8998 100.3 43.2998 100.8C43.5998 101.2 44.6998 101.5 45.4998 101.7L45.9998 101.8C50.4998 103.1 55.0998 103.7 59.7998 103.7C64.3998 103.7 69.0998 103 73.5998 101.8L74.0998 101.7C74.8998 101.5 76.0998 101.2 76.2998 100.8C76.6998 100.2 76.6998 100.2 76.4998 98.5001C76.2998 97.3001 76.1998 96.2001 75.9998 95.1001C75.7998 93.9001 75.5998 92.6001 75.2998 90.9001C75.1998 90.3001 75.3998 89.8001 75.7998 89.4001C76.1998 89.0001 76.6998 88.7001 77.1998 88.7001L88.8998 88.2001C89.0998 88.2001 89.2998 88.0001 89.3998 87.9001C89.4998 87.8001 89.5998 87.6001 89.5998 87.2001L89.1998 83.9001C89.1998 83.6001 88.9998 83.4001 88.8998 83.3001C88.7998 83.2001 88.5998 83.1001 88.2998 83.2001L78.9998 84.7001C78.3998 84.8001 77.7998 84.6001 77.3998 84.3001C76.9998 83.9001 76.6998 83.4001 76.6998 82.8001V78.6001C76.6998 77.9001 76.3998 77.5001 75.5998 77.0001C74.5998 76.4001 74.2998 75.2001 74.8998 74.3001C75.4998 73.3001 76.6998 73.0001 77.5998 73.6001C80.0998 75.1001 80.6998 77.2001 80.6998 78.6001V80.4001L87.7998 79.2001C89.0998 79.0001 90.3998 79.3001 91.4998 80.0001C92.5998 80.7001 93.2998 82.0001 93.3998 83.3001L93.7998 86.6001C93.9998 87.9001 93.5998 89.3001 92.6998 90.3001C91.7998 91.3001 90.5998 92.0001 89.2998 92.1001L79.6998 92.5001C79.7998 93.2001 79.8998 93.8001 79.9998 94.4001C80.1998 95.6001 80.3998 96.7001 80.5998 98.0001C80.7998 99.9001 80.9998 101.2 79.7998 103.1C78.6998 104.7 76.7998 105.2 75.2998 105.6L74.7998 105.7C69.9998 107 64.9998 107.7 59.9998 107.7Z" fill="#062B4E"/>
</svg>
