<svg width="126" height="50" viewBox="0 0 126 50" fill="none" xmlns="http://www.w3.org/2000/svg">
<g clip-path="url(#clip0)">
<path d="M-4 55V23.4937H9.41226C7.78273 21.6109 6.4039 19.728 4.89972 17.5941C-4 4.41423 -2.37047 -5 -2.37047 -5L-0.615599 -3.24268C2.7688 0.271967 5.27577 2.02929 9.03621 4.16318C10.7911 5.16737 12.546 6.04603 14.4262 6.92469C16.5571 7.92887 18.688 8.93306 20.6936 10.1883C23.9526 12.1967 28.2145 14.9582 31.3482 18.8494C32.6017 20.3556 33.4791 22.9916 34.1059 24.3724L34.2312 24.2469C34.3565 24.1213 34.3565 24.1213 34.4819 23.9958C35.3593 23.2427 36.2368 22.4895 36.9889 21.9874C38.493 20.8577 40.2479 20.2301 41.6267 19.3515C50.1504 14.205 54.5376 9.68619 55.039 9.68619C55.6657 9.68619 55.415 9.93724 55.415 11.9456C55.415 12.6987 55.2897 13.5774 55.1644 14.7071C54.7883 17.4686 54.2869 19.2259 52.7827 21.7364C52.6574 21.9874 51.2786 24.6234 51.1532 24.8745H131.125V54.8745H-4V55Z" fill="white"/>
<path d="M14.0495 39.1841V45.8368H11.4172V39.8117C11.4172 38.8075 11.0411 38.1799 10.1637 38.1799C9.4116 38.1799 8.53416 38.5564 7.78207 39.1841V45.8368H5.02441V36.4226H7.53138V37.4267C8.53416 36.6736 9.78765 36.1715 10.9158 36.1715C12.9214 36.1715 14.0495 37.1757 14.0495 39.1841Z" fill="#519544"/>
<path d="M23.5766 43.0753L24.5794 44.7071C23.4513 45.5858 21.9471 46.0879 20.4429 46.0879C17.4346 46.0879 15.6797 43.954 15.6797 41.1925C15.6797 38.431 17.4346 36.046 20.5683 36.046C22.6992 36.046 24.5794 37.1757 24.5794 39.3096C24.5794 40.8159 23.702 42.0711 21.5711 42.0711H18.0613C18.312 43.2008 19.0641 43.954 20.5683 43.954C21.5711 44.0795 22.6992 43.7029 23.5766 43.0753ZM18.0613 40.4393H21.0697C21.8217 40.4393 22.3231 40.0628 22.3231 39.4351C22.3231 38.8075 21.6964 38.1799 20.6936 38.1799C19.4401 38.0544 18.312 38.9331 18.0613 40.4393Z" fill="#519544"/>
<path d="M33.604 43.0753L34.6068 44.7071C33.4786 45.5858 31.9744 46.0879 30.4703 46.0879C27.4619 46.0879 25.707 43.954 25.707 41.1925C25.707 38.431 27.4619 36.046 30.5956 36.046C32.7265 36.046 34.6068 37.1757 34.6068 39.3096C34.6068 40.8159 33.7293 42.0711 31.5984 42.0711H28.0886C28.3393 43.2008 29.0914 43.954 30.5956 43.954C31.5984 44.0795 32.7265 43.7029 33.604 43.0753ZM28.214 40.4393H31.2224C31.9744 40.4393 32.4758 40.0628 32.4758 39.4351C32.4758 38.8075 31.8491 38.1799 30.8463 38.1799C29.5928 38.0544 28.4647 38.9331 28.214 40.4393Z" fill="#519544"/>
<path d="M51.7804 39.1841V45.8368H49.1481V39.8117C49.1481 38.8075 48.8974 38.3054 47.8946 38.3054C47.0172 38.3054 46.2651 38.682 45.513 39.3096V45.8368H42.8807V39.8117C42.8807 38.8075 42.63 38.3054 41.6272 38.3054C40.8751 38.3054 39.9977 38.682 39.2456 39.4351V45.9623H36.6133V36.4226H39.1202V37.6778C40.123 36.7991 41.3765 36.1715 42.63 36.1715C43.8835 36.1715 44.7609 36.6736 45.2623 37.5523C46.2651 36.6736 47.5186 36.1715 48.772 36.1715C50.5269 36.1715 51.7804 37.1757 51.7804 39.1841Z" fill="#519544"/>
<path d="M65.443 32.7824C64.9416 32.4058 64.1895 32.1548 63.3121 32.1548C62.1839 32.1548 61.0558 32.6569 59.9277 33.6611C58.7995 34.6652 58.2981 35.9205 58.2981 37.4267C58.2981 37.4267 58.2981 37.5523 58.1728 37.5523H57.0446C56.9193 37.5523 56.9193 37.6778 56.9193 37.8033C56.9193 37.9288 56.9193 38.0544 56.9193 38.3054V38.4309C56.9193 38.4309 56.9193 38.5565 56.9193 38.682C56.9193 38.682 56.9193 38.682 56.9193 38.8075C56.9193 38.933 57.0446 39.0585 57.0446 39.0585H58.1728C58.1728 39.1841 58.2981 39.1841 58.2981 39.1841V43.5774C58.2981 44.205 58.1728 44.5816 58.0474 44.8326C57.9221 44.9581 57.546 45.0837 56.9193 45.2092L56.7939 45.3347C56.7939 45.4602 56.7939 45.4602 56.7939 45.5857C56.7939 45.7113 56.7939 45.7113 56.7939 45.8368C56.7939 45.9623 56.7939 45.9623 56.9193 45.9623C57.2953 45.9623 57.7967 45.9623 58.2981 45.9623C58.7995 45.9623 59.3009 45.9623 59.8023 45.9623C60.3037 45.9623 60.8051 45.9623 61.3065 45.9623C61.9332 45.9623 62.4346 45.9623 62.8107 45.9623C62.8107 45.9623 62.936 45.9623 62.936 45.8368C62.936 45.7113 62.936 45.7113 62.936 45.5857C62.936 45.5857 62.936 45.4602 62.936 45.3347C62.936 45.2092 62.936 45.2092 62.8107 45.2092C62.3093 45.2092 61.9332 45.0837 61.6825 44.8326C61.4318 44.5816 61.4318 44.205 61.4318 43.5774V38.933L63.5628 39.0585C63.5628 39.0585 63.6881 38.933 63.6881 38.8075C63.6881 38.682 63.8134 38.5565 63.8134 38.4309C63.8134 38.3054 63.8134 38.1799 63.8134 37.9288C63.8134 37.8033 63.6881 37.6778 63.6881 37.6778H61.5572V35.9205C61.5572 34.7908 61.6825 34.0376 61.9332 33.9121C62.1839 33.7866 62.4346 33.6611 62.6853 33.6611C62.8107 33.6611 63.0614 33.7866 63.1867 34.0376C63.3121 34.2887 63.4374 34.5397 63.5628 34.6652C63.6881 34.9163 63.8134 35.1673 64.0641 35.2929C64.3148 35.5439 64.5655 35.5439 64.8162 35.5439C65.3176 35.5439 65.6937 35.4184 65.819 35.1673C66.0697 34.9163 66.1951 34.5397 66.1951 34.1632C66.1951 33.6611 65.9444 33.159 65.443 32.7824Z" fill="#4596C1"/>
<path d="M73.4655 38.8076C73.4655 39.1842 73.3401 39.5607 73.0894 39.9373C72.8388 40.1883 72.4627 40.3139 72.0867 40.3139C71.836 40.3139 71.5853 40.3139 71.4599 40.1883C71.3346 40.0628 71.0839 39.9373 71.0839 39.8118C70.9585 39.6862 70.8332 39.5607 70.7078 39.4352C70.5825 39.3097 70.4571 39.3097 70.2064 39.3097C69.9557 39.3097 69.7051 39.4352 69.5797 39.5607C69.4544 39.6862 69.2037 39.9373 69.0783 40.3139V43.703C69.0783 44.3306 69.2037 44.7072 69.329 44.9582C69.5797 45.2093 69.9557 45.3348 70.4571 45.3348C70.4571 45.3348 70.5825 45.3348 70.5825 45.4603C70.5825 45.5858 70.5825 45.5858 70.5825 45.7113C70.5825 45.7113 70.5825 45.8369 70.5825 45.9624C70.5825 46.0879 70.4571 46.0879 70.4571 46.0879C70.0811 46.0879 69.5797 46.0879 68.953 46.0879C68.3262 46.0879 67.8248 46.0879 67.4488 46.0879C67.0727 46.0879 66.5713 46.0879 65.9446 46.0879C65.4432 46.0879 64.9418 46.0879 64.5658 46.0879C64.5658 46.0879 64.4404 46.0879 64.4404 45.9624C64.4404 45.8369 64.4404 45.7113 64.4404 45.7113C64.4404 45.5858 64.4404 45.5858 64.4404 45.4603C64.4404 45.3348 64.5658 45.3348 64.5658 45.3348C65.0672 45.2093 65.4432 45.0837 65.5686 44.9582C65.6939 44.7072 65.8193 44.3306 65.8193 43.703V40.6904C65.8193 40.1883 65.8193 39.8118 65.6939 39.6862C65.5686 39.5607 65.3179 39.4352 64.8165 39.4352C64.8165 39.4352 64.6911 39.4352 64.6911 39.3097C64.6911 39.1842 64.6911 39.1841 64.6911 39.0586C64.6911 38.9331 64.6911 38.9331 64.6911 38.8076C64.6911 38.6821 64.8165 38.6821 64.8165 38.6821C65.1925 38.5565 65.8193 38.431 66.5713 38.0544C67.3234 37.8034 67.8248 37.5524 68.2009 37.3013C68.2009 37.3013 68.3262 37.3013 68.4516 37.1758C68.5769 37.1758 68.5769 37.1758 68.7023 37.1758C68.8276 37.1758 68.953 37.1758 69.0783 37.3013C69.2037 37.3013 69.2037 37.4268 69.2037 37.4268L69.0783 39.1842C69.329 38.6821 69.7051 38.18 70.2064 37.8034C70.7078 37.4268 71.2092 37.3013 71.5853 37.3013C72.212 37.3013 72.7134 37.4268 73.0894 37.6779C73.3401 37.9289 73.4655 38.3055 73.4655 38.8076Z" fill="#4596C1"/>
<path d="M101.042 39.4352C101.042 39.8118 100.917 40.0628 100.666 40.3139C100.415 40.5649 100.165 40.6904 99.7885 40.6904C99.2871 40.6904 98.911 40.5649 98.7857 40.3139C98.535 40.0628 98.4096 39.6862 98.2843 39.3097C98.1589 39.0586 98.0336 38.6821 97.9082 38.431C97.7829 38.18 97.5322 37.9289 97.1562 37.9289C96.6548 37.9289 96.2787 38.18 96.028 38.5565C95.7773 39.0586 95.652 39.9373 95.652 41.318C95.652 42.3222 95.7773 43.0754 96.028 43.703C96.2787 44.3306 96.9055 44.5816 97.7829 44.5816C98.2843 44.5816 98.7857 44.4561 99.2871 44.3306C99.5378 44.2051 99.6631 44.2051 99.9138 44.0795C100.039 43.954 100.165 43.8285 100.29 43.8285C100.415 43.8285 100.666 43.8285 100.791 43.954C100.917 44.0795 100.917 44.2051 100.917 44.3306C100.917 44.4561 100.791 44.5816 100.666 44.7072C100.541 44.8327 100.415 44.9582 100.29 45.0837C100.039 45.3348 99.6631 45.4603 99.4124 45.7114C98.7857 46.0879 97.9082 46.2134 97.1562 46.2134C95.9027 46.2134 94.7745 45.8369 93.7718 44.9582C92.769 44.0795 92.2676 43.0754 92.2676 41.6946C92.2676 40.3139 92.769 39.1841 93.7718 38.431C94.7745 37.6779 95.9027 37.1758 97.2815 37.1758C98.1589 37.1758 99.0364 37.4268 99.9138 37.8034C100.666 38.3055 101.042 38.8076 101.042 39.4352Z" fill="#4596C1"/>
<path d="M113.076 45.5858C113.076 45.7114 113.076 45.7114 113.076 45.8369V45.9624C112.95 46.0879 112.825 46.0879 112.825 46.0879C112.7 46.0879 112.574 46.0879 112.449 46.0879C112.198 46.0879 111.948 46.0879 111.697 46.0879C111.195 46.0879 110.694 46.0879 110.318 46.0879C109.942 46.0879 109.441 46.0879 109.065 46.0879C108.814 46.0879 108.563 46.0879 108.312 46.0879C108.187 46.0879 107.936 46.0879 107.686 45.9624C107.686 45.8369 107.56 45.7114 107.56 45.7114C107.56 45.7114 107.56 45.5858 107.56 45.4603C107.56 45.3348 107.811 45.3348 107.936 45.2093C108.062 45.0837 108.187 45.0837 108.312 44.9582C108.438 44.7072 108.563 44.3306 108.563 43.703V40.6904C108.563 40.0628 108.438 39.5607 108.312 39.3097C108.187 39.0586 107.936 38.9331 107.435 38.9331C107.059 38.9331 106.808 39.0586 106.558 39.3097C106.307 39.5607 106.056 39.9373 105.931 40.4394V43.5775C105.931 44.0796 106.056 44.5816 106.056 44.8327C106.056 44.9582 106.182 44.9582 106.307 45.0837C106.432 45.2093 106.432 45.2093 106.558 45.2093C106.683 45.3348 106.683 45.4603 106.683 45.5858C106.683 45.7114 106.683 45.8369 106.558 45.9624C106.432 46.0879 106.182 46.0879 106.056 45.9624C105.806 45.9624 105.555 45.9624 105.304 45.9624C104.928 45.9624 104.427 45.9624 104.051 45.9624C103.549 45.9624 103.173 45.9624 102.672 45.9624C102.546 45.9624 102.546 45.9624 102.546 45.9624C102.296 45.9624 102.17 45.9624 101.92 45.9624C101.794 45.9624 101.669 45.9624 101.669 45.9624C101.544 45.9624 101.544 45.9624 101.418 45.9624L101.293 45.8369C101.293 45.7114 101.293 45.7114 101.293 45.5858C101.293 45.5858 101.293 45.4603 101.293 45.3348C101.293 45.3348 101.293 45.2093 101.418 45.2093C101.544 45.0837 101.544 45.2093 101.669 45.0837C101.794 45.0837 101.92 45.0837 101.92 45.0837C102.045 45.0837 102.17 44.9582 102.296 44.9582C102.296 44.9582 102.421 44.9582 102.421 44.8327C102.546 44.7072 102.672 44.2051 102.672 43.5775V35.795C102.672 35.2929 102.546 35.0419 102.421 34.7909C102.17 34.6653 101.92 34.5398 101.418 34.5398L101.293 34.4143C101.293 34.2888 101.293 34.2888 101.293 34.1632C101.293 34.1632 101.293 34.0377 101.293 33.9122C101.293 33.7867 101.418 33.7867 101.418 33.7867C102.045 33.6611 102.672 33.4101 103.424 33.1591C104.176 32.908 104.803 32.657 105.179 32.4059C105.179 32.4059 105.304 32.4059 105.429 32.2804C105.555 32.2804 105.555 32.2804 105.68 32.2804C105.806 32.2804 105.931 32.2804 106.056 32.4059L106.182 32.5314C106.182 33.0335 106.056 33.5356 106.056 34.1632C106.056 34.7909 106.056 35.2929 106.056 35.6695V38.9331C106.307 38.3055 106.683 37.9289 107.31 37.6779C107.811 37.4268 108.438 37.3013 108.939 37.3013C109.817 37.3013 110.569 37.5524 111.195 38.18C111.697 38.8076 111.948 39.4352 111.948 40.1883V43.5775C111.948 44.2051 112.073 44.5816 112.198 44.8327C112.324 44.9582 112.449 45.0837 112.7 45.0837C112.825 45.0837 112.95 45.2093 113.076 45.2093C113.201 45.2093 113.326 45.2093 113.326 45.3348C113.076 45.3348 113.076 45.4603 113.076 45.5858Z" fill="#4596C1"/>
<path d="M120.972 43.3264C120.471 43.5774 119.217 44.8326 117.588 44.5816C115.582 44.3305 115.833 42.5732 115.833 42.5732C115.833 42.5732 117.838 42.9498 119.719 42.0711C122.226 40.9414 120.847 38.5565 120.847 38.5565C120.095 37.5523 118.967 37.1757 117.212 37.3013C114.454 37.5523 112.323 39.5607 112.574 42.0711C112.699 44.5816 115.081 46.4644 117.713 46.3389C119.343 46.2134 120.721 45.4602 121.599 44.3305C121.975 43.7029 121.599 43.0753 120.972 43.3264ZM116.46 39.3096C117.212 37.9289 118.841 38.1799 118.841 39.4351C118.841 40.8159 117.086 41.4435 116.71 41.569C116.46 41.6946 115.958 41.8201 115.958 41.4435C115.958 41.4435 115.833 40.3138 116.46 39.3096Z" fill="#4596C1"/>
<path d="M81.9887 43.3264C81.4873 43.5774 80.2338 44.8326 78.6043 44.5816C76.5987 44.3305 76.8494 42.5732 76.8494 42.5732C76.8494 42.5732 78.855 42.9498 80.7352 42.0711C83.2422 40.9414 81.8633 38.5565 81.8633 38.5565C81.1113 37.5523 79.9831 37.1757 78.2282 37.3013C75.4706 37.5523 73.3397 39.5607 73.5904 42.0711C73.7157 44.5816 75.972 46.4644 78.7296 46.3389C80.3592 46.2134 81.738 45.4602 82.6154 44.3305C82.9915 43.7029 82.4901 43.0753 81.9887 43.3264ZM77.3508 39.3096C78.1029 37.9289 79.7324 38.1799 79.7324 39.4351C79.7324 40.8159 77.9776 41.4435 77.6015 41.569C77.3508 41.6946 76.8494 41.8201 76.8494 41.4435C76.8494 41.4435 76.8494 40.3138 77.3508 39.3096Z" fill="#4596C1"/>
<path d="M91.6405 39.0586C91.6405 38.6821 91.2644 38.18 90.5123 37.8034C90.5123 37.8034 90.2616 37.6779 89.7602 37.4268C89.6349 37.4268 89.5095 37.3013 89.3842 37.3013C89.2588 37.3013 89.1335 37.3013 89.0081 37.1758C88.8828 37.1758 88.7574 37.1758 88.5067 37.1758C88.2561 37.1758 88.0053 37.1758 87.7547 37.1758C87.7547 37.1758 87.7547 37.1758 87.6293 37.1758C87.3786 37.1758 87.1279 37.1758 86.8772 37.3013C86.1251 37.4268 85.4984 37.6779 84.997 38.0544L84.8716 38.18C84.2449 38.6821 83.9942 39.3097 83.9942 40.0628C83.9942 40.6904 84.2449 41.318 84.7463 41.6946C85.2477 42.0712 85.7491 42.3222 86.2505 42.5733C86.7519 42.8243 87.2533 42.9498 87.7547 43.2009C88.256 43.4519 88.5067 43.703 88.5067 44.2051C88.5067 44.5816 88.3814 44.8327 88.256 45.0837C88.1307 45.3348 87.7547 45.4603 87.3786 45.4603C86.8772 45.4603 86.3758 45.3348 85.8744 44.8327L85.7491 44.7072C85.2477 44.2051 84.997 43.703 84.997 43.5775C84.997 43.4519 84.8716 43.0754 84.4956 43.0754C83.9942 43.0754 83.8689 43.3264 83.8689 43.3264C83.7435 43.4519 83.6182 43.703 83.6182 44.0795C83.6182 44.7072 84.2449 45.2093 84.997 45.7113C84.997 45.7113 85.2477 45.8369 85.7491 46.0879C85.8744 46.0879 85.9998 46.2134 86.1251 46.2134C86.2505 46.2134 86.3758 46.2134 86.5012 46.339C86.6265 46.339 86.7519 46.339 87.0026 46.4645C87.2533 46.4645 87.504 46.4645 87.7547 46.4645H87.88H88.0054C89.0081 46.339 89.8856 46.0879 90.5123 45.5858C91.2644 44.9582 91.5151 44.2051 91.5151 43.3264C91.5151 42.6988 91.2644 42.1967 90.763 41.8201C90.2616 41.4436 89.7602 41.1925 89.2588 40.9415C88.7574 40.6904 88.256 40.5649 87.7547 40.3139C87.2533 40.0628 87.0026 39.8118 87.0026 39.3097C87.0026 39.1842 87.0026 39.1841 87.0026 39.0586C87.0026 38.9331 87.1279 38.8076 87.2533 38.5565C87.3786 38.431 87.504 38.3055 87.7547 38.3055C87.88 38.3055 88.0054 38.3055 88.1307 38.3055C88.6321 38.3055 89.1335 38.431 89.6349 38.8076L89.7602 38.9331C90.2616 39.3097 90.2616 39.5607 90.2616 39.6862C90.2616 39.8118 90.5123 40.0628 90.8884 40.1883C91.3898 40.1883 91.5151 39.9373 91.5151 39.9373C91.5151 39.6862 91.6405 39.4352 91.6405 39.0586Z" fill="#4596C1"/>
<path d="M30.5957 33.9122C30.5957 33.9122 31.4731 31.0252 31.4731 30.1465C31.4731 29.2678 31.5984 28.5147 31.4731 27.8871C31.3477 27.2595 31.2224 26.3808 31.2224 25.6277C31.2224 25 31.2224 23.3682 30.9717 23.2427C30.5957 23.1172 30.2196 23.7448 30.0943 23.6193C29.9689 23.4938 29.5929 22.4896 29.4675 21.9875C29.3422 21.3599 29.3422 20.3557 28.9661 20.2302C28.7154 20.1047 28.3394 20.4812 28.214 20.6067C28.0887 20.7323 28.0887 20.4812 27.9633 20.3557C27.838 20.2302 27.3366 19.6026 27.0859 19.226C26.8352 18.8494 26.3338 18.2218 26.2085 17.9708C26.0831 17.7197 25.8324 17.3431 25.5817 17.3431C25.331 17.3431 25.331 17.8452 25.0803 17.8452C24.8296 17.8452 24.8296 17.8452 24.3282 17.0921C23.7015 16.339 23.7015 16.0879 23.4508 15.9624C23.2001 15.9624 22.9494 15.8369 22.6987 15.5858C22.448 15.4603 21.9466 14.7072 21.6959 14.8327C21.4452 14.9582 21.0692 15.9624 20.9438 15.8369C20.8185 15.7113 19.9411 14.5816 19.6904 14.0795C19.4397 13.5775 19.0636 13.0754 18.8129 13.2009C18.5622 13.2009 18.4369 13.8285 18.3115 13.703C18.1862 13.5775 17.4341 12.8243 17.1834 12.5733C16.9327 12.4477 16.5567 11.5691 16.306 11.5691C16.0553 11.5691 15.9299 12.1967 15.6792 12.1967C15.4285 12.0712 15.0525 11.6946 14.8018 11.4436C14.5511 11.1925 14.4257 10.6904 14.3004 10.5649C14.175 10.4394 13.9243 10.8159 13.799 10.6904C13.6736 10.5649 12.7962 9.93729 12.7962 9.68624C12.6709 9.43519 12.5455 9.18415 12.4202 9.56072C12.2948 9.93729 12.1695 10.0628 11.7934 9.81176C11.4174 9.56072 10.7906 9.18415 10.5399 8.9331C10.2892 8.68206 10.2892 8.55653 10.0385 8.55653C9.78785 8.43101 9.53716 8.43101 9.28646 8.17996C8.65972 7.55235 8.40902 7.05026 8.28368 7.17578C8.15833 7.42683 8.03298 7.67787 7.78228 7.55235C7.53158 7.3013 7.03019 6.79921 6.40345 6.42264C5.77671 6.04607 5.40067 5.6695 5.02462 5.41846C4.64858 5.04189 4.64858 5.04189 4.39788 5.04189C4.14718 5.04189 3.89649 4.91637 3.39509 4.5398C2.8937 4.16323 2.39231 3.53561 1.89092 3.28457C1.51487 2.908 1.13883 2.40591 0.637434 1.65277C0.0106934 1.02515 -0.114655 0.272014 -0.114655 0.52306C-0.240003 0.774106 0.136041 2.28038 0.762782 3.41009C1.38952 4.66532 1.51487 4.91637 1.76557 5.29293C1.89092 5.54398 2.01626 6.29712 2.26696 6.54816C2.39231 6.79921 3.01905 7.42683 3.26975 7.67787C3.3951 7.92892 3.3951 7.92892 3.26975 8.05444C3.1444 8.17996 3.01905 8.17996 3.52044 8.68206C4.02184 9.18415 4.27253 9.56072 4.64858 10.0628C4.89927 10.5649 5.14997 10.8159 5.40067 11.067C5.65136 11.318 5.77671 11.4436 5.52601 11.4436C5.40067 11.4436 4.89927 11.6946 5.27532 12.0712C5.77671 12.4477 6.65415 13.2009 6.7795 13.4519C6.90484 13.703 6.90484 13.8285 7.28089 14.0795C7.65693 14.3306 8.28367 14.9582 8.15833 14.9582C8.15833 14.9582 7.53159 15.0837 7.90763 15.5858C8.28367 16.0879 9.41181 16.9666 9.53716 17.2176C9.66251 17.3431 9.78785 17.3431 9.78785 17.4687C9.78785 17.5942 9.41181 17.7197 10.0385 18.4729C10.6653 19.226 11.292 19.7281 11.6681 19.9791C12.0441 20.2302 12.0441 20.3557 11.9188 20.3557C11.7934 20.3557 11.4174 20.6067 12.1695 21.2344C12.9216 21.9875 13.799 22.6151 14.175 22.9917C14.5511 23.3682 14.6764 23.2427 14.8018 23.4938C14.9271 23.7448 15.4285 24.749 15.9299 25.3766C16.4313 26.0042 17.3087 26.5063 17.3087 26.7574C17.3087 27.0084 17.1834 27.1339 17.8101 27.5105C18.4369 28.0126 19.189 28.3892 19.3143 28.6402C19.4397 28.8913 19.3143 28.7657 20.3171 29.2678C21.3199 29.7699 21.6959 29.8954 22.448 30.3975C23.3255 30.8996 24.4536 31.4017 25.4564 31.5272C26.2085 31.6528 26.9606 32.1549 27.5873 32.5314C28.3394 33.0335 28.7154 33.5356 29.2168 34.2888C29.4675 34.6653 30.0943 35.6695 30.5957 34.9164C30.4703 34.6653 30.4703 34.2888 30.5957 33.9122Z" fill="#519544"/>
<path d="M25.9582 29.0168C26.8356 30.272 27.5877 31.6527 28.4651 32.908C28.8412 33.4101 29.0919 33.9122 29.4679 34.4142C29.5933 34.6653 29.7186 34.7908 29.844 35.0419C29.844 35.0419 29.9693 35.2929 30.0947 35.2929C30.0947 35.2929 30.3454 35.1674 30.22 35.1674C30.0947 34.9163 29.9693 34.5398 29.844 34.2887C29.4679 33.7866 29.2172 33.159 28.8412 32.6569C27.8384 31.1507 26.8356 29.6444 25.8328 28.1381C23.5765 25.1255 21.6963 22.9917 19.4401 21.1088C17.3091 19.226 12.0445 14.205 9.9136 12.3222C7.78268 10.4394 6.77989 9.18412 5.02502 7.55232C4.52363 7.05023 4.14758 6.67366 3.77154 6.29709C2.76875 5.16739 2.14201 4.53977 1.64062 3.78663C1.01388 2.78245 0.136439 1.52722 -0.114258 0.64856C-0.114258 0.64856 1.01388 3.53559 3.27014 5.92053C5.65176 8.30546 6.2785 8.93308 6.77989 9.56069C7.28129 10.1883 9.41221 12.0712 10.6657 13.3264C12.0445 14.5816 14.4261 16.9666 15.805 18.2218C17.1838 19.477 19.4401 21.4854 20.5682 22.7406C21.947 24.1214 24.5793 27.0084 25.9582 29.0168Z" fill="#A3C94B"/>
<path d="M20.1924 22.113C20.4431 21.6109 20.6938 20.9833 20.9445 20.3557C21.0698 19.7281 21.1952 19.1005 21.5712 18.5984C21.6966 18.3473 21.8219 17.9708 21.8219 17.7197L21.9473 16.8411C21.9473 16.59 22.0726 16.2134 22.0726 15.9624C21.9473 15.7114 21.9473 15.3348 21.8219 15.0837C21.9473 15.3348 21.9473 15.7114 22.0726 15.9624C22.0726 16.2134 22.0726 16.59 21.9473 16.8411L21.8219 17.7197C21.8219 17.9708 21.6966 18.3473 21.5712 18.5984C21.3205 19.1005 21.1952 19.7281 21.0698 20.3557C20.9445 20.9833 20.6938 21.4854 20.4431 22.113H20.1924Z" fill="#A3C94B"/>
<path d="M22.8242 24.7489L23.451 23.9958C23.5763 23.7447 23.7017 23.3682 23.827 23.1171L24.203 22.2385C24.203 22.1129 24.3284 21.8619 24.4537 21.7364C24.5791 21.6109 24.7044 21.4853 24.7044 21.3598C24.8298 20.7322 24.9551 20.1046 25.2058 19.477C25.2058 19.3514 25.2058 19.1004 25.2058 18.9749C25.2058 18.8493 25.2058 18.5983 25.3312 18.4728C25.4565 18.2217 25.5819 17.8452 25.5819 17.5941C25.5819 17.9707 25.4565 18.2217 25.3312 18.5983C25.3312 18.7238 25.2058 18.9749 25.3312 19.1004C25.4565 19.2259 25.4565 19.477 25.3312 19.6025C25.0805 20.1046 24.8298 20.7322 24.8298 21.3598C24.3284 21.8619 24.3284 22.4895 24.0777 23.1171C23.9524 23.3682 23.827 23.7447 23.7017 23.9958L23.0749 24.7489H22.8242Z" fill="#A3C94B"/>
<path d="M25.2061 27.7615C25.2061 27.385 25.5821 27.1339 25.8328 26.8829C26.0835 26.6318 26.3342 26.3808 26.4595 26.1297C26.7102 25.8787 26.8356 25.6276 27.0863 25.2511C27.2116 25 27.337 24.6235 27.4623 24.2469C27.5877 23.8703 27.713 23.6193 27.8384 23.2427C27.9637 22.8661 28.0891 22.6151 27.9637 22.2385C27.9637 22.113 27.9637 22.113 27.9637 21.9875V21.862V21.7364C28.0891 21.6109 28.2144 21.4854 28.3398 21.3599C28.5905 21.1088 28.5905 20.7322 28.7158 20.4812C28.4651 20.7322 28.5905 21.2343 28.3398 21.4854C28.2144 21.6109 28.0891 21.7364 27.9637 21.862C27.8384 21.9875 27.9637 21.9875 27.9637 22.113C27.9637 22.2385 27.9637 22.2385 27.9637 22.364C28.0891 22.7406 27.9637 23.1172 27.8384 23.3682C27.713 23.7448 27.5877 23.9958 27.4623 24.3724C27.337 24.749 27.337 25 27.2116 25.3766C27.0863 25.7532 26.8356 26.0042 26.5849 26.2553C26.3342 26.5063 26.0835 26.7574 25.9581 27.0084C25.7074 27.2594 25.4568 27.5105 25.4568 27.7615H25.2061Z" fill="#A3C94B"/>
<path d="M26.9609 30.2719C27.0863 30.0209 27.337 29.7698 27.5877 29.5188C27.713 29.2677 27.9637 29.0167 28.0891 28.6401C28.2144 28.3891 28.3398 28.0125 28.5905 27.7615L29.0919 26.8828C29.2172 26.6318 29.4679 26.3807 29.5932 26.0041C29.5932 25.8786 29.7186 25.6276 29.7186 25.5021L29.9693 25.1255C30.0946 24.8744 30.22 24.4979 30.3453 24.2468C30.4707 23.9958 30.596 23.6192 30.596 23.3682C30.7214 23.7447 30.4707 23.9958 30.3453 24.3723C30.22 24.6234 30.22 25 29.9693 25.251L29.7186 25.6276C29.5932 25.7531 29.5932 25.8786 29.5932 26.1297C29.4679 26.5062 29.3426 26.7573 29.0919 27.0083L28.5905 27.887C28.4651 28.138 28.3398 28.5146 28.0891 28.7657C27.9637 29.0167 27.8384 29.3933 27.5877 29.6443C27.337 29.8954 27.2116 30.1464 27.0863 30.3975L26.9609 30.2719Z" fill="#A3C94B"/>
<path d="M28.3398 32.2804C28.3398 31.9038 28.7159 31.6528 28.8412 31.4017L29.468 30.7741C29.9694 30.3975 30.2201 29.7699 30.4708 29.1423L30.5961 28.2636C30.5961 28.0126 30.7215 27.636 30.7215 27.385V26.8829C30.7215 26.7574 30.7215 26.5063 30.8468 26.3808C30.9722 26.1298 30.7215 25.7532 30.7215 25.5021V25.2511V25.5021C30.8468 25.7532 31.0975 26.1298 30.9722 26.3808C30.9722 26.5063 30.8468 26.6319 30.8468 26.8829L30.9722 27.385C30.9722 27.7616 30.9722 28.0126 30.8468 28.2636L30.7215 29.1423C30.5961 29.3934 30.4708 29.7699 30.3454 30.021C30.2201 30.272 29.9694 30.5231 29.844 30.7741L29.2173 31.4017C28.9666 31.6528 28.7159 31.9038 28.7159 32.1549L28.3398 32.2804Z" fill="#A3C94B"/>
<path d="M17.8105 19.8535C17.9359 19.6025 17.9359 19.3514 18.0612 19.1004C18.1866 18.8493 18.3119 18.5983 18.4373 18.3472C18.688 17.8451 18.688 17.343 18.8133 16.7154C18.9387 16.4644 18.9387 16.2133 19.064 15.9623C19.064 15.7113 19.1894 15.4602 19.1894 15.2092C19.064 14.9581 19.064 14.7071 19.064 14.456L18.8133 13.7029L19.064 14.456C19.1894 14.7071 19.1894 14.9581 19.1894 15.2092C19.3147 15.4602 19.1894 15.7112 19.064 16.0878C19.064 16.3389 18.9387 16.5899 18.9387 16.841C18.8133 17.343 18.8133 17.9707 18.5626 18.4728C18.4373 18.7238 18.3119 18.9748 18.1866 19.2259C18.0612 19.4769 18.0612 19.728 17.9359 19.979L17.8105 19.8535Z" fill="#A3C94B"/>
<path d="M15.5547 17.8452C15.68 17.4686 15.9307 16.9665 16.0561 16.5899C16.1814 16.2134 16.1814 15.7113 16.3068 15.2092C16.3068 14.7071 16.4321 14.3305 16.4321 13.8284C16.5575 13.3263 16.3068 12.9498 16.1814 12.5732V11.8201V12.5732C16.3068 12.9498 16.5575 13.4519 16.4321 13.954C16.4321 14.4561 16.3068 14.8326 16.3068 15.3347C16.3068 15.8368 16.3068 16.2134 16.1814 16.7155C16.0561 17.2176 15.8054 17.5941 15.68 17.9707L15.5547 17.8452Z" fill="#A3C94B"/>
<path d="M13.6738 16.0878C13.6738 15.8368 13.7992 15.5857 13.7992 15.3347C13.9245 15.0837 14.0499 14.9581 14.0499 14.7071C14.1752 14.3305 14.3006 13.8284 14.3006 13.3263C14.3006 12.8242 14.3006 12.4477 14.3006 11.9456C14.0499 11.569 14.1752 11.0669 13.9245 10.5648C14.1752 10.9414 14.0499 11.4435 14.3006 11.9456C14.4259 12.4477 14.4259 12.8242 14.4259 13.3263C14.4259 13.8284 14.3006 14.205 14.1752 14.7071C14.1752 14.9581 14.0499 15.2092 13.9245 15.3347C13.7992 15.5857 13.7992 15.7113 13.7992 15.9623H13.6738V16.0878Z" fill="#A3C94B"/>
<path d="M11.7939 14.3306C11.7939 13.8285 12.0446 13.4519 12.17 13.2009C12.2953 12.8243 12.2953 12.4477 12.4207 11.9456C12.546 11.5691 12.6714 11.1925 12.546 10.6904C12.546 10.4394 12.546 10.3138 12.4207 10.0628C12.2953 9.81175 12.4207 9.68623 12.4207 9.43518C12.2953 9.81175 12.546 10.1883 12.546 10.5649C12.6714 10.9415 12.546 11.4435 12.546 11.8201C12.4207 12.1967 12.546 12.5733 12.4207 13.0753C12.4207 13.3264 12.2953 13.4519 12.17 13.5774C12.0446 13.703 12.0446 13.954 12.0446 14.0795L11.7939 14.3306Z" fill="#A3C94B"/>
<path d="M9.78809 12.4477C9.78809 12.0711 9.91343 11.8201 10.0388 11.569C10.1641 11.318 10.2895 10.9414 10.4148 10.6904C10.4148 10.5649 10.5402 10.3138 10.5402 10.1883C10.6655 10.0628 10.5402 9.93724 10.5402 9.68619L10.4148 9.1841C10.4148 9.05858 10.2895 8.80753 10.4148 8.68201C10.2895 8.80753 10.4148 8.93305 10.4148 9.1841L10.5402 9.56067C10.5402 9.68619 10.6655 9.93724 10.5402 10.0628C10.4148 10.1883 10.4148 10.3138 10.4148 10.5649C10.4148 10.9414 10.2895 11.1925 10.1641 11.4435C10.0388 11.6946 9.91343 12.0711 9.91343 12.3222L9.78809 12.4477Z" fill="#A3C94B"/>
<path d="M8.28418 11.0669C8.28418 10.8158 8.28418 10.4393 8.40953 10.1882C8.53488 9.93719 8.66022 9.68614 8.66022 9.30957C8.53488 8.933 8.78557 8.68195 8.66022 8.43091C8.66022 8.30538 8.66022 8.05434 8.66022 7.92882C8.66022 7.80329 8.53488 7.67777 8.40953 7.55225C8.40953 7.55225 8.53488 7.67777 8.53488 7.92882C8.53488 8.05434 8.53488 8.17986 8.53488 8.43091C8.66022 8.68195 8.53488 9.05852 8.66022 9.30957C8.78557 9.68614 8.66022 9.93719 8.53488 10.1882C8.40953 10.4393 8.40953 10.8158 8.40953 11.0669H8.28418Z" fill="#A3C94B"/>
<path d="M6.5293 9.18415C6.65465 8.80758 6.77999 8.43101 6.90534 8.17997C6.90534 8.05444 6.90534 7.8034 6.90534 7.67787V7.17578V7.67787C6.90534 7.8034 7.03069 8.05444 6.90534 8.30549C6.90534 8.43101 6.77999 8.68206 6.77999 8.80758L6.65465 9.30967L6.5293 9.18415Z" fill="#A3C94B"/>
<path d="M25.3319 28.2636C25.0812 28.1381 24.7051 27.887 24.4544 28.0126C24.0784 28.1381 23.8277 28.2636 23.4516 28.2636C22.6995 28.3891 21.9475 28.3891 21.3207 28.1381C20.694 28.0126 19.9419 27.7615 19.1898 27.636C18.8137 27.636 18.4377 27.5105 18.187 27.3849C18.0617 27.3849 17.811 27.2594 17.6856 27.1339C17.5603 27.0084 17.4349 26.7573 17.3096 26.7573C17.5603 26.7573 17.5603 27.0084 17.6856 27.1339C17.811 27.2594 17.9363 27.3849 18.187 27.3849C18.5631 27.5105 18.8137 27.5105 19.1898 27.5105C19.9419 27.636 20.5686 27.7615 21.3207 27.887C21.9475 28.1381 22.6995 28.1381 23.4516 28.0126C23.8277 27.887 24.0784 27.887 24.4544 27.7615C24.8305 27.636 25.2065 27.887 25.5826 28.0126L25.3319 28.2636Z" fill="#A3C94B"/>
<path d="M22.5741 24.749C22.3234 24.6235 21.9474 24.4979 21.5713 24.6235C21.1953 24.749 20.8192 24.8745 20.4432 25C20.0671 25 19.6911 25 19.3151 25C18.939 25 18.563 25 18.1869 25C17.4348 25 16.6827 24.6235 16.056 24.2469C15.68 24.1214 15.4293 23.9958 15.0532 23.7448C14.6772 23.6193 14.3011 23.4938 14.1758 23.1172C14.3011 23.4938 14.6772 23.6193 15.0532 23.7448C15.4293 23.8703 15.8053 23.9959 16.056 24.1214C16.6827 24.4979 17.4348 24.749 18.1869 24.749C18.563 24.749 18.939 24.749 19.3151 24.749C19.6911 24.749 20.0671 24.749 20.4432 24.749C20.8192 24.749 21.1953 24.6235 21.446 24.3724C21.822 24.2469 22.1981 24.2469 22.5741 24.4979V24.749Z" fill="#A3C94B"/>
<path d="M19.1892 21.2343C18.9385 21.1088 18.5625 21.2343 18.3118 21.2343C18.0611 21.3598 17.685 21.4854 17.4343 21.4854C17.0583 21.6109 16.8076 21.6109 16.4315 21.6109C16.0555 21.6109 15.8048 21.4854 15.4288 21.4854L14.426 21.3598C14.0499 21.3598 13.7992 21.3598 13.4232 21.2343C13.0471 21.2343 12.7965 20.9833 12.5458 20.8577C12.4204 20.8577 12.1697 20.8577 12.0444 20.7322C11.919 20.7322 11.7937 20.6067 11.543 20.6067C11.6683 20.6067 11.7937 20.7322 12.0444 20.7322C12.1697 20.7322 12.4204 20.7322 12.5458 20.8577C12.7965 20.9833 13.1725 21.2343 13.4232 21.2343C13.7992 21.2343 14.0499 21.2343 14.426 21.2343L15.4288 21.3598C15.8048 21.3598 16.0555 21.4854 16.4315 21.4854C16.8076 21.4854 17.0583 21.3598 17.309 21.3598C17.5597 21.2343 17.9357 21.1088 18.1864 20.9833C18.5625 20.8577 18.8132 20.8577 19.1892 20.9833V21.2343Z" fill="#A3C94B"/>
<path d="M16.6819 18.8494C16.4312 18.7239 16.0551 18.7239 15.8045 18.7239C15.6791 18.7239 15.5538 18.7239 15.4284 18.8494C15.3031 18.9749 15.1777 18.9749 15.0524 18.9749C14.8017 19.1004 14.4256 19.1004 14.1749 19.1004C13.9242 19.1004 13.5482 19.1004 13.2975 19.226C12.6707 19.1004 12.1694 18.8494 11.5426 18.5984C11.4173 18.5984 11.2919 18.5984 11.1666 18.4728C11.0412 18.3473 10.9159 18.3473 10.7905 18.2218C10.5398 18.0963 10.1638 18.0963 9.91309 17.8452C10.1638 17.9707 10.5398 18.0963 10.7905 18.0963C11.0412 18.2218 11.2919 18.3473 11.668 18.3473C12.2947 18.4728 12.7961 18.7239 13.2975 18.8494C13.5482 18.7239 13.9242 18.7239 14.1749 18.7239C14.4256 18.7239 14.8017 18.5984 15.0524 18.4728C15.1777 18.4728 15.3031 18.3473 15.4284 18.3473C15.5538 18.2218 15.8045 18.2218 15.9298 18.2218C16.3058 18.2218 16.5565 18.3473 16.8072 18.3473L16.6819 18.8494Z" fill="#A3C94B"/>
<path d="M13.0478 15.5858C12.7971 15.4602 12.6718 15.4602 12.4211 15.5858C12.1704 15.7113 11.9197 15.7113 11.7943 15.8368C11.293 15.9623 10.9169 16.0878 10.4155 16.0878C10.1648 16.0878 9.91412 16.0878 9.66343 15.9623L9.03669 15.7113C8.78599 15.5858 8.66064 15.5858 8.40994 15.5858C8.15925 15.5858 7.90855 15.5858 7.7832 15.4602C8.0339 15.5858 8.2846 15.5858 8.40994 15.5858C8.66064 15.5858 8.91134 15.7113 9.03669 15.7113L9.66343 15.9623C9.91412 16.0878 10.0395 16.0878 10.2902 16.0878C10.7916 15.9623 11.1676 15.8368 11.669 15.7113C11.9197 15.5858 12.045 15.5858 12.2957 15.4602C12.5464 15.3347 12.7971 15.3347 13.0478 15.4602V15.5858Z" fill="#A3C94B"/>
<path d="M11.1671 13.703C11.0418 13.703 10.7911 13.703 10.6657 13.703C10.5404 13.703 10.2897 13.8285 10.1643 13.954C9.78828 14.0795 9.41224 14.0795 9.03619 14.0795C8.66015 14.0795 8.2841 14.0795 7.90806 14.0795C7.53201 14.0795 7.15597 13.954 6.90527 13.703C7.28132 13.8285 7.65736 13.954 7.90806 13.954C8.2841 13.954 8.66015 13.954 9.03619 13.954C9.41224 13.954 9.78828 13.954 10.1643 13.8285C10.2897 13.8285 10.415 13.703 10.6657 13.5774C10.7911 13.5774 11.0418 13.4519 11.1671 13.4519V13.703Z" fill="#A3C94B"/>
<path d="M9.2866 11.9456C9.16125 11.9456 8.91056 11.9456 8.78521 11.9456C8.65986 11.9456 8.53451 12.0711 8.28382 12.1967C7.90777 12.3222 7.53173 12.4477 7.15568 12.3222C6.77964 12.1967 6.40359 12.1967 6.02755 12.0711C5.6515 11.9456 5.27546 11.9456 4.89941 11.8201C5.27546 11.9456 5.6515 11.9456 6.02755 12.0711C6.40359 12.0711 6.77964 12.1967 7.15568 12.1967C7.53173 12.3222 7.90777 12.1967 8.15847 12.0711C8.28381 11.9456 8.40916 11.8201 8.65986 11.8201C8.91056 11.6946 9.0359 11.6946 9.2866 11.6946V11.9456Z" fill="#A3C94B"/>
<path d="M5.77684 8.43098C5.52615 8.43098 5.4008 8.43098 5.1501 8.5565C4.89941 8.5565 4.77406 8.68202 4.52336 8.68202C4.14732 8.68202 3.77127 8.5565 3.39523 8.43098H3.14453L3.39523 8.30546C3.77127 8.43098 4.14732 8.43098 4.52336 8.43098C4.64871 8.43098 4.89941 8.30546 5.1501 8.30546C5.4008 8.30546 5.52615 8.17993 5.77684 8.17993V8.43098Z" fill="#A3C94B"/>
<path d="M8.03298 10.816C7.65694 10.816 7.28089 10.9415 6.90485 11.067C6.65415 11.1925 6.5288 11.1925 6.27811 11.1925C6.02741 11.1925 5.90206 11.1925 5.65137 11.318C5.77672 11.1925 6.02741 11.1925 6.27811 11.1925C6.5288 11.1925 6.65415 11.1925 6.90485 11.067C7.28089 10.9415 7.65694 10.816 8.03298 10.6904V10.816Z" fill="#A3C94B"/>
<path d="M7.03082 9.81168C6.78012 9.81168 6.52942 9.81168 6.27873 9.81168C6.15338 9.81168 6.02803 9.81168 5.90268 9.9372C5.77734 9.9372 5.77734 10.0627 5.52664 10.0627C5.27594 10.0627 5.02525 10.0627 4.77455 10.0627C4.6492 10.0627 4.52385 9.9372 4.39851 9.9372C4.27316 9.9372 4.14781 9.81168 4.02246 9.81168C4.14781 9.81168 4.27316 9.9372 4.39851 9.9372C4.52385 9.9372 4.6492 9.9372 4.77455 10.0627C5.02525 10.1882 5.27594 10.1882 5.52664 10.0627C5.65199 10.0627 5.65199 9.9372 5.77734 9.81168C5.90268 9.68616 6.02803 9.68616 6.15338 9.68616C6.40408 9.68616 6.65477 9.68616 6.90547 9.68616L7.03082 9.81168Z" fill="#A3C94B"/>
<path d="M27.2112 30.8995C27.0858 30.774 26.8351 30.774 26.7098 30.774C26.5844 30.774 26.5844 30.774 26.4591 30.774C26.3337 30.774 26.3337 30.8995 26.2084 30.8995C25.8323 31.0251 25.4563 31.0251 24.9549 31.0251C24.5789 30.8995 24.2028 30.8995 23.8268 30.774L22.6986 30.3974C22.3226 30.2719 21.9466 30.1464 21.5705 30.0209C21.1945 29.8954 20.8184 29.7698 20.5677 29.5188C20.1917 29.2677 20.0663 29.0167 19.6903 28.7656C19.3142 28.5146 19.0635 28.3891 18.6875 28.2635C19.0635 28.3891 19.4396 28.6401 19.6903 28.7656C19.941 29.0167 20.317 29.2677 20.5677 29.5188C20.8184 29.7698 21.3198 29.8954 21.5705 30.0209C21.9466 30.1464 22.3226 30.2719 22.6986 30.3974L23.8268 30.774C24.2028 30.8995 24.5789 30.8995 24.9549 31.0251C25.331 31.1506 25.707 31.0251 26.083 30.8995C26.2084 30.8995 26.2084 30.8995 26.3337 30.774C26.4591 30.774 26.5844 30.6485 26.7098 30.6485C26.9605 30.6485 27.0858 30.774 27.3365 30.774L27.2112 30.8995Z" fill="#A3C94B"/>
<path d="M34.7329 34.2887C34.7329 34.2887 34.2315 32.6569 34.2315 32.1548C34.2315 31.6527 34.1061 31.1506 34.2315 30.8995C34.2315 30.523 34.3568 30.0209 34.3568 29.6443C34.3568 29.2677 34.3568 28.3891 34.4822 28.2635C34.6075 28.138 34.9836 28.5146 34.9836 28.5146C34.9836 28.3891 35.2343 27.887 35.3596 27.5104C35.3596 27.1338 35.485 26.6318 35.6103 26.5062C35.7357 26.3807 35.9864 26.6318 36.1117 26.6318C36.2371 26.6318 36.2371 26.6318 36.2371 26.5062C36.2371 26.3807 36.6131 26.0041 36.7385 25.8786C36.8638 25.6276 37.1145 25.3765 37.2399 25.251C37.2399 25.1255 37.4905 24.8744 37.6159 24.8744C37.7412 24.8744 37.7412 25.1255 37.8666 25.1255C37.9919 25.1255 37.9919 25.1255 38.368 24.7489C38.744 24.2468 38.744 24.1213 38.8694 24.1213C38.9947 24.1213 39.1201 23.9958 39.3708 23.8702C39.4961 23.7447 39.8722 23.3682 39.8722 23.3682C39.9975 23.4937 40.2482 23.9958 40.2482 23.8702C40.3736 23.8702 40.7496 23.1171 41.0003 22.8661C41.1256 22.615 41.3763 22.364 41.5017 22.364C41.627 22.364 41.7524 22.7405 41.7524 22.615C41.8777 22.615 42.2538 22.1129 42.3791 21.9874C42.5045 21.8619 42.7552 21.4853 42.8805 21.4853C43.0059 21.4853 43.1312 21.8619 43.2566 21.8619C43.3819 21.8619 43.6326 21.6108 43.758 21.4853C43.8833 21.3598 44.0086 21.1087 44.0086 20.9832C44.134 20.9832 44.2593 21.1087 44.3847 20.9832C44.51 20.9832 44.8861 20.6066 45.0114 20.3556C45.1368 20.2301 45.1368 20.1046 45.2621 20.3556C45.3875 20.6066 45.3875 20.6066 45.6382 20.4811C45.7635 20.3556 46.1396 20.1046 46.3903 19.979C46.5156 19.8535 46.5156 19.8535 46.641 19.728C46.7663 19.728 46.8917 19.6025 47.1424 19.4769C47.2677 19.3514 47.5184 19.1004 47.5184 19.1004C47.6437 19.2259 47.6437 19.3514 47.7691 19.2259C47.8944 19.1004 48.1451 18.8493 48.5212 18.5983C48.8972 18.3472 49.1479 18.2217 49.2733 17.9707C49.3986 17.8451 49.3986 17.7196 49.6493 17.8451C49.7747 17.8451 49.9 17.7196 50.2761 17.5941C50.5268 17.343 50.7775 17.092 51.0282 16.841C51.2788 16.7154 51.5295 16.3389 51.7802 15.9623C52.0309 15.5857 52.1563 15.2092 52.1563 15.3347C52.1563 15.4602 52.0309 16.3389 51.6549 16.9665C51.2788 17.5941 51.2788 17.8451 51.1535 17.9707C51.0281 18.0962 50.9028 18.5983 50.9028 18.7238C50.7775 18.8493 50.5268 19.2259 50.4014 19.3514C50.2761 19.4769 50.4014 19.4769 50.4014 19.6025C50.5268 19.6025 50.5268 19.728 50.2761 19.979C50.0254 20.2301 49.7747 20.4811 49.6493 20.7322C49.524 20.9832 49.3986 21.1087 49.2733 21.3598C49.1479 21.4853 49.1479 21.6108 49.1479 21.6108C49.2733 21.6108 49.524 21.7364 49.2733 21.9874C49.0226 22.2384 48.5212 22.615 48.3958 22.7405C48.2705 22.8661 48.2705 22.8661 48.1451 23.1171C47.8944 23.2426 47.6437 23.6192 47.6437 23.6192C47.6437 23.6192 48.0198 23.7447 47.7691 23.9958C47.5184 24.2468 46.8917 24.7489 46.8917 24.8744C46.7663 25 46.7663 25 46.7663 25C46.7663 25.1255 47.017 25.1255 46.641 25.6276C46.2649 26.0041 45.8889 26.3807 45.7635 26.5062C45.5128 26.6318 45.5128 26.7573 45.6382 26.7573C45.7635 26.7573 45.8889 26.8828 45.5128 27.2594C45.1368 27.6359 44.6354 28.0125 44.3847 28.2635C44.134 28.5146 44.134 28.3891 44.0086 28.5146C43.8833 28.6401 43.6326 29.1422 43.3819 29.5188C43.1312 29.8953 42.6298 30.1464 42.6298 30.2719C42.6298 30.3974 42.7552 30.523 42.3791 30.774C42.0031 31.0251 41.627 31.2761 41.5017 31.4016C41.3763 31.5271 41.5017 31.5271 41.0003 31.7782C40.4989 32.0292 40.2482 32.1548 39.8722 32.4058C39.3708 32.6569 38.744 32.9079 38.1173 33.0334C37.6159 33.1589 37.2398 33.41 36.8638 33.661C36.4878 33.9121 36.2371 34.2887 35.9864 34.6652C35.861 34.9163 35.485 35.4184 35.2343 35.0418C34.7329 34.7907 34.7329 34.5397 34.7329 34.2887Z" fill="#519544"/>
<path d="M37.24 31.5272C36.7386 32.2803 36.2372 33.0334 35.8612 33.7866C35.7358 34.0376 35.4851 34.4142 35.3598 34.6652C35.2344 34.7908 35.2344 34.9163 35.1091 35.0418L34.9837 35.1673C34.9837 35.1673 34.8584 35.1673 34.8584 35.0418C34.9837 34.9163 34.9837 34.6652 35.1091 34.5397C35.2344 34.2887 35.4851 33.9121 35.7358 33.6611C36.2372 32.7824 36.864 31.9037 37.4907 31.1506C38.7442 29.3933 39.8723 28.2636 41.1258 27.1339C42.3793 26.0042 45.2623 23.2427 46.5158 22.2385C47.6439 21.1088 48.2707 20.4811 49.2734 19.6025C49.5241 19.3514 49.7748 19.1004 50.0255 18.8493C50.5269 18.3473 50.7776 17.9707 51.1537 17.5941C51.5297 16.9665 52.0311 16.3389 52.1564 15.8368C52.1564 15.8368 51.5297 17.4686 50.2762 18.8493C49.0227 20.2301 48.6467 20.4811 48.2707 20.8577C48.02 21.2343 46.7665 22.2385 46.0144 22.9916C45.2623 23.7447 43.8835 25 43.1314 25.7531C42.3793 26.3807 41.1258 27.5104 40.4991 28.2636C39.4963 28.7657 38.1175 30.3975 37.24 31.5272Z" fill="#A3C94B"/>
<path d="M40.3735 27.636C40.2482 27.385 40.1228 27.0084 39.9975 26.6318C39.8721 26.2552 39.8721 26.0042 39.6214 25.6276C39.4961 25.2511 39.4961 25 39.4961 24.6234C39.4961 24.4979 39.4961 24.2469 39.4961 24.1214C39.4961 23.9958 39.6214 23.7448 39.6214 23.6193C39.6214 23.7448 39.4961 23.9958 39.4961 24.1214C39.4961 24.2469 39.4961 24.4979 39.4961 24.6234C39.6214 25 39.4961 25.3766 39.7468 25.6276C39.8721 25.8787 39.9975 26.2552 40.1228 26.6318C40.2482 27.0084 40.3735 27.385 40.3735 27.636Z" fill="#A3C94B"/>
<path d="M38.9941 29.1422C38.7434 28.8912 38.4927 28.5146 38.4927 28.138C38.3673 27.7615 38.3673 27.3849 37.9913 27.1339C37.8659 26.7573 37.8659 26.3807 37.7406 26.1297C37.7406 26.0041 37.7406 25.8786 37.7406 25.8786C37.7406 25.7531 37.7406 25.7531 37.7406 25.6276C37.7406 25.5021 37.6152 25.251 37.6152 25.1255C37.6152 25.251 37.7406 25.5021 37.7406 25.6276C37.7406 25.7531 37.7406 25.7531 37.7406 25.8786C37.7406 26.0041 37.7406 26.0041 37.7406 26.1297C37.8659 26.5062 37.8659 26.8828 37.9913 27.1339C38.242 27.3849 38.3673 27.7615 38.4927 28.138C38.618 28.5146 38.7434 28.8912 38.9941 29.1422Z" fill="#A3C94B"/>
<path d="M37.6156 30.7741C37.6156 30.6485 37.4902 30.523 37.3649 30.272C37.2395 30.1464 37.1142 30.0209 36.9888 29.7699C36.8635 29.6444 36.7381 29.5188 36.6128 29.2678L36.4874 28.8912C36.4874 28.7657 36.3621 28.5146 36.3621 28.3891C36.3621 28.2636 36.2367 28.0126 36.2367 27.7615V27.636V27.5105C36.1114 27.3849 36.1114 27.3849 35.986 27.2594C35.8607 27.1339 35.8607 26.8828 35.7354 26.7573C35.8607 26.8828 35.8607 27.1339 35.986 27.2594C36.1114 27.3849 36.1114 27.3849 36.2367 27.5105V27.636V27.7615C36.2367 28.0126 36.2367 28.1381 36.3621 28.3891C36.4874 28.5146 36.4874 28.7657 36.6128 28.8912L36.8635 29.3933C36.9888 29.5188 37.1142 29.7699 37.2395 29.8954C37.3649 30.0209 37.4902 30.1464 37.6156 30.3975C37.4902 30.3975 37.7409 30.523 37.6156 30.7741Z" fill="#A3C94B"/>
<path d="M36.6127 32.2804C36.4873 32.0293 36.2366 31.6528 35.9859 31.4017C35.8606 31.0251 35.6099 30.7741 35.4845 30.3975C35.3592 30.272 35.2338 30.1465 35.2338 29.8954C35.2338 29.7699 35.1085 29.5189 34.9831 29.3933C34.9831 29.2678 34.8578 29.0168 34.8578 28.8913C34.8578 28.7657 34.7324 28.5147 34.7324 28.3892C34.7324 28.6402 34.7324 28.7657 34.8578 28.8913C34.9831 29.0168 34.9831 29.2678 35.1085 29.3933C35.2338 29.5189 35.3592 29.6444 35.3592 29.8954C35.4845 30.021 35.4845 30.272 35.6099 30.3975C35.8606 30.6486 35.9859 31.0251 36.1113 31.4017C36.2366 31.6528 36.4873 31.9038 36.6127 32.2804Z" fill="#A3C94B"/>
<path d="M35.8609 33.41C35.8609 33.2845 35.7356 33.1589 35.6102 33.0334L35.2342 32.6568C34.9835 32.4058 34.8581 32.0292 34.7328 31.7782C34.7328 31.4016 34.6074 31.025 34.6074 30.774C34.6074 30.6485 34.6074 30.3974 34.6074 30.2719C34.6074 30.1464 34.7328 29.8953 34.7328 29.7698V29.6443V29.7698C34.7328 29.8953 34.6074 30.1464 34.6074 30.2719C34.6074 30.3974 34.6074 30.6485 34.6074 30.774C34.6074 31.1506 34.7328 31.5271 34.7328 31.7782C34.8581 32.0292 34.9835 32.4058 35.2342 32.6568L35.6102 33.0334C35.7356 33.0334 35.9863 33.1589 35.8609 33.41Z" fill="#A3C94B"/>
<path d="M41.7521 26.3808C41.7521 26.2552 41.6268 26.1297 41.6268 26.0042C41.6268 25.8787 41.5014 25.7532 41.3761 25.6276C41.2507 25.3766 41.2507 25 41.1254 24.749C41.1254 24.6234 41 24.4979 41 24.2469C41 24.1214 40.8747 23.9958 41 23.7448C41 23.6193 41 23.4937 41.1254 23.2427L41.2507 22.7406L41.1254 23.3682C41.1254 23.4937 41.1254 23.6193 41 23.8703C41 23.9958 41 24.1214 41 24.3724C41 24.4979 41.1254 24.6234 41.1254 24.8745C41.2507 25.1255 41.2507 25.5021 41.3761 25.7532C41.3761 25.8787 41.5014 26.0042 41.6268 26.1297C41.7521 26.1297 41.7521 26.2552 41.7521 26.3808Z" fill="#A3C94B"/>
<path d="M43.0055 25.2511C42.8801 25 42.7548 24.749 42.7548 24.4979C42.6294 24.2469 42.6294 23.9958 42.6294 23.7448C42.6294 23.4937 42.5041 23.2427 42.5041 22.9916C42.3787 22.7406 42.6294 22.4896 42.6294 22.2385V21.8619V22.2385C42.5041 22.4896 42.3787 22.7406 42.5041 22.9916C42.5041 23.2427 42.5041 23.4937 42.6294 23.7448C42.6294 23.9958 42.6294 24.2469 42.7548 24.4979C42.8801 24.749 43.0055 25 43.0055 25.2511Z" fill="#A3C94B"/>
<path d="M44.1339 24.2469C44.1339 23.9959 44.0085 23.7448 43.8832 23.4938C43.8832 23.2427 43.7578 22.9917 43.7578 22.7407C43.7578 22.4896 43.7578 22.2386 43.7578 21.9875C43.8832 21.7365 43.8832 21.4854 44.0085 21.2344C43.8832 21.4854 44.0085 21.7365 43.8832 21.9875C43.7578 22.2386 43.8832 22.4896 43.8832 22.7407C43.8832 22.9917 43.8832 23.2427 44.0085 23.4938C44.0085 23.7448 44.1339 23.9959 44.1339 24.2469Z" fill="#A3C94B"/>
<path d="M45.1368 23.2426C45.1368 22.9916 45.0115 22.8661 44.8861 22.615C44.7608 22.364 44.8861 22.1129 44.7608 21.9874C44.7608 21.7364 44.6354 21.4853 44.7608 21.3598C44.7608 21.1087 44.8861 20.9832 44.8861 20.7322C45.0115 20.9832 44.8861 21.2343 44.7608 21.3598C44.6354 21.6108 44.7608 21.8619 44.7608 21.9874C44.8861 22.2385 44.7608 22.4895 44.8861 22.615C45.1368 22.8661 45.2622 22.9916 45.1368 23.2426Z" fill="#A3C94B"/>
<path d="M46.2648 22.2385C46.2648 22.1129 46.2648 21.8619 46.1394 21.7364C46.0141 21.6109 46.0141 21.3598 46.0141 21.2343C46.0141 21.1088 46.0141 21.1088 45.8887 20.9832C45.8887 20.8577 45.8887 20.7322 45.8887 20.7322L46.0141 20.4811C46.0141 20.3556 46.1394 20.3556 46.0141 20.2301C46.0141 20.3556 46.0141 20.3556 46.0141 20.4811L45.8887 20.7322C45.7634 20.8577 45.8887 20.9832 45.8887 21.2343C45.8887 21.3598 46.0141 21.6109 46.1394 21.7364C46.3901 21.8619 46.3901 21.9874 46.2648 22.2385Z" fill="#A3C94B"/>
<path d="M47.1423 21.4853C47.1423 21.3598 47.1423 21.1087 47.017 20.9832C47.017 20.8577 46.8916 20.6066 46.8916 20.4811C46.8916 20.3556 46.8916 20.1045 46.8916 19.979C46.8916 19.8535 46.8916 19.8535 46.8916 19.728C46.8916 19.6025 47.017 19.6025 47.017 19.4769C47.017 19.6025 46.8916 19.6025 46.8916 19.728C46.8916 19.8535 46.8916 19.8535 46.8916 19.979C46.8916 20.1045 46.8916 20.3556 46.8916 20.4811C46.8916 20.6066 46.8916 20.8577 47.017 20.9832C47.2677 21.1087 47.2676 21.2343 47.1423 21.4853Z" fill="#A3C94B"/>
<path d="M48.1452 20.4812C48.1452 20.3557 48.0199 20.2301 48.0199 20.1046C48.0199 19.9791 47.8945 19.8536 47.8945 19.728C47.8945 19.6025 47.8945 19.3515 47.8945 19.226C47.8945 19.3515 47.8945 19.6025 47.8945 19.728C47.8945 19.8536 47.8945 19.9791 48.0199 20.1046C48.1452 20.2301 48.1452 20.3557 48.1452 20.4812Z" fill="#A3C94B"/>
<path d="M37.6152 31.0251C37.7406 30.8996 37.9913 30.7741 38.242 30.8996C38.4927 31.0251 38.618 31.0251 38.8687 31.0251C39.2448 31.1506 39.6208 31.1506 39.9968 31.0251C40.3729 30.8996 40.7489 30.7741 41.125 30.7741C41.3757 30.7741 41.501 30.7741 41.7517 30.6485C41.8771 30.6485 41.8771 30.523 42.0024 30.523C42.1278 30.3975 42.1278 30.3975 42.2531 30.272C42.1278 30.272 42.1278 30.3975 42.0024 30.523C42.0024 30.6485 41.8771 30.6485 41.7517 30.6485C41.501 30.7741 41.3757 30.7741 41.125 30.7741C40.7489 30.8996 40.3729 30.8996 39.9968 31.0251C39.6208 31.1506 39.2448 31.1506 38.7434 31.1506C38.4927 31.1506 38.3673 31.0251 38.1166 31.0251C37.9913 30.8996 37.7406 31.0251 37.6152 31.0251Z" fill="#A3C94B"/>
<path d="M39.1201 29.1422C39.3708 29.0167 39.4962 29.0167 39.7469 29.0167C39.9976 29.1422 40.1229 29.1422 40.3736 29.1422C40.7496 29.1422 41.251 29.1422 41.6271 29.1422C42.0031 29.1422 42.3792 28.8912 42.7552 28.7657C43.1313 28.5146 43.6326 28.5146 43.8833 28.1381C43.6326 28.5146 43.1313 28.5146 42.8806 28.7657C42.5045 28.8912 42.1285 29.1422 41.7524 29.1422C41.3764 29.1422 40.875 29.1422 40.4989 29.1422C39.9976 29.2678 39.6215 28.8912 39.1201 29.1422Z" fill="#A3C94B"/>
<path d="M41 27.1339C41.376 27.0083 41.7521 27.2594 42.1281 27.3849C42.5042 27.5104 42.8802 27.5104 43.1309 27.3849C43.507 27.3849 43.883 27.3849 44.2591 27.2594C44.3844 27.2594 44.6351 27.1339 44.7604 27.0083C44.8858 27.0083 45.1365 26.8828 45.2618 26.8828L45.0111 27.0083C44.8858 27.0083 44.8858 27.0083 44.7604 27.0083C44.6351 27.0083 44.5097 27.1339 44.2591 27.2594C43.883 27.2594 43.507 27.2594 43.1309 27.3849C42.7549 27.3849 42.3788 27.5104 42.0028 27.3849C41.7521 27.2594 41.376 27.0083 41 27.1339Z" fill="#A3C94B"/>
<path d="M42.5039 25.7532C42.6293 25.7532 42.88 25.6276 43.0053 25.6276C43.256 25.6276 43.3813 25.7532 43.5067 25.7532C43.8827 25.8787 44.1334 25.8787 44.5095 25.8787C44.7602 25.7532 45.1362 25.6276 45.5123 25.6276C45.6376 25.6276 45.8883 25.5021 46.0137 25.5021C46.139 25.3766 46.3897 25.3766 46.5151 25.3766C46.3897 25.5021 46.139 25.5021 46.0137 25.5021C45.8883 25.6276 45.763 25.6276 45.5123 25.6276C45.1362 25.7532 44.8855 25.8787 44.5095 26.0042C44.1334 25.8787 43.8827 26.0042 43.5067 25.8787C43.3813 25.8787 43.256 25.7532 43.0053 25.7532C42.88 25.7532 42.6293 25.7532 42.5039 25.7532Z" fill="#A3C94B"/>
<path d="M44.5098 23.9958C44.6351 23.9958 44.7605 23.9958 44.8858 23.9958C45.0112 23.9958 45.1365 24.1213 45.2619 24.1213C45.5125 24.2468 45.7632 24.2468 46.0139 24.2468C46.2646 24.2468 46.5153 24.1213 46.766 24.1213C46.8914 24.1213 47.0167 23.9958 47.1421 23.9958C47.2674 23.9958 47.3928 23.9958 47.5181 23.8702C47.3928 23.8702 47.2674 23.8702 47.1421 23.9958C47.0167 23.9958 46.8914 24.1213 46.766 24.1213C46.5153 24.1213 46.2646 24.3723 46.0139 24.3723C45.7632 24.3723 45.5125 24.2468 45.2619 24.2468C45.0112 24.1213 44.7605 23.8702 44.5098 23.9958Z" fill="#A3C94B"/>
<path d="M45.5127 22.8661C45.638 22.8661 45.7634 22.8661 45.8887 22.8661C46.0141 22.8661 46.0141 22.9916 46.1394 22.9916C46.3901 22.9916 46.5155 23.1171 46.7662 23.1171C47.1422 23.1171 47.6436 23.1171 48.0197 22.9916C47.6436 23.2427 47.2676 23.2427 46.7662 23.2427C46.5155 23.2427 46.3901 23.2427 46.1394 23.2427C45.8887 23.1171 45.7634 22.9916 45.5127 22.8661Z" fill="#A3C94B"/>
<path d="M46.6406 21.8619C46.8913 21.8619 47.142 21.9875 47.2674 22.113C47.3927 22.2385 47.6434 22.2385 47.8941 22.2385C48.2702 22.113 48.7715 22.113 49.1476 21.9875C48.7715 22.113 48.3955 22.113 47.8941 22.2385C47.6434 22.2385 47.3927 22.2385 47.2674 22.113C47.0167 21.9875 46.8913 21.8619 46.6406 21.8619Z" fill="#A3C94B"/>
<path d="M48.6465 19.8535C48.7718 19.8535 48.8972 19.8535 49.0225 19.8535C49.1479 19.8535 49.2732 19.979 49.3986 19.979C49.6493 19.979 49.9 19.979 50.0253 19.8535H50.1507H50.0253C49.7746 20.1046 49.5239 20.1046 49.2732 20.1046C49.1479 20.1046 49.0225 19.979 48.8972 19.979C48.8972 19.979 48.7718 19.979 48.6465 19.8535Z" fill="#A3C94B"/>
<path d="M47.2676 21.2344C47.5183 21.2344 47.769 21.3599 47.8943 21.3599C48.0197 21.3599 48.145 21.3599 48.2704 21.3599C48.3957 21.3599 48.5211 21.3599 48.6464 21.4854C48.5211 21.4854 48.3957 21.3599 48.2704 21.3599C48.145 21.3599 48.0197 21.3599 47.8943 21.3599C47.769 21.3599 47.5183 21.3599 47.2676 21.2344Z" fill="#A3C94B"/>
<path d="M47.8945 20.6067C48.0199 20.6067 48.1452 20.6067 48.2706 20.6067C48.3959 20.6067 48.5213 20.6067 48.6466 20.7322C48.772 20.8577 48.772 20.8577 48.8973 20.8577C49.0227 20.8577 49.148 20.8577 49.2734 20.8577C49.3987 20.8577 49.3987 20.8577 49.5241 20.7322C49.3987 20.7322 49.3987 20.8577 49.2734 20.8577C49.148 20.8577 49.0227 20.9833 48.8973 20.9833C48.772 20.9833 48.6466 20.9833 48.5213 20.8577C48.3959 20.6067 48.1452 20.7322 47.8945 20.6067Z" fill="#A3C94B"/>
<path d="M36.6133 32.5314C36.7386 32.5314 36.864 32.4059 36.9893 32.4059C37.1147 32.4059 37.24 32.5314 37.3654 32.5314C37.6161 32.6569 37.7414 32.6569 37.9921 32.5314C38.3682 32.5314 38.8695 32.2803 39.2456 32.1548C39.4963 32.1548 39.6216 32.0293 39.8723 32.0293C40.123 31.9038 40.2484 31.9038 40.4991 31.7783C40.6244 31.6527 40.8751 31.5272 41.0005 31.4017C41.2512 31.2762 41.3765 31.1506 41.6272 31.1506C41.3765 31.2762 41.2512 31.2762 41.0005 31.4017C40.8751 31.5272 40.7498 31.6527 40.4991 31.9038C40.3737 32.0293 40.123 32.1548 39.8723 32.1548C39.6216 32.2803 39.4963 32.2803 39.2456 32.4059C38.8695 32.5314 38.3682 32.7824 37.9921 32.7824C37.7414 32.7824 37.4907 32.7824 37.3654 32.7824C37.24 32.7824 37.1147 32.6569 37.1147 32.6569C36.864 32.5314 36.7386 32.5314 36.6133 32.5314Z" fill="#A3C94B"/>
<path d="M64.6912 50.1046H1.64104C1.39034 50.1046 1.13965 49.8536 1.13965 49.6026V30.6486C1.13965 30.3975 1.39034 30.1465 1.64104 30.1465H18.563C18.8137 30.1465 19.0644 30.3975 19.0644 30.6486C19.0644 30.8996 18.8137 31.1507 18.563 31.1507H2.14243V48.9749H64.6912C64.9419 48.9749 65.1926 49.226 65.1926 49.477C65.1926 49.8536 64.9419 50.1046 64.6912 50.1046Z" fill="#519544"/>
<path d="M125.36 50.1046H56.9196C56.6689 50.1046 56.4182 49.8536 56.4182 49.6026C56.4182 49.3515 56.6689 49.1005 56.9196 49.1005H124.858V31.1507H44.8862C44.6355 31.1507 44.3848 30.8996 44.3848 30.6486C44.3848 30.3975 44.6355 30.1465 44.8862 30.1465H125.36C125.61 30.1465 125.861 30.3975 125.861 30.6486V49.6026C125.861 49.8536 125.736 50.1046 125.36 50.1046Z" fill="#4596C1"/>
</g>
<defs>
<clipPath id="clip0">
<rect width="126" height="50" fill="white"/>
</clipPath>
</defs>
</svg>
