<svg xmlns="http://www.w3.org/2000/svg" id="Layer_2" data-name="Layer 2" viewBox="0 0 70 70"><defs><style>.cls-1{stroke:#000;stroke-linecap:round;stroke-linejoin:round;fill:none}.cls-2,.cls-3{fill:none;stroke-width:0}.cls-3{fill:#f47887}</style></defs><g id="Layer_1-2" data-name="Layer 1"><g><path d="M26.35 20.89c0-1.58-1.76-2.37-1.76-2.37s-1.76.79-1.76 2.37v2.83h3.52v-2.83ZM46.02 20.89c0-1.58-1.76-2.37-1.76-2.37s-1.76.79-1.76 2.37v2.83h3.52v-2.83ZM2.53 30.37h18.51v5.08H2.53zM47.38 30.37h18.51v5.08H47.38zM22.83 25.37h22.65v6.08H22.83zM51.92 54.43v-9.65c0-1.9 4.72-2.85 4.72-2.85s4.72.95 4.72 2.85v9.65h4.54V37.19H47.39v17.24h4.54ZM7.07 54.43v-9.65c0-1.9 4.72-2.85 4.72-2.85s4.72.95 4.72 2.85v9.65h4.54V37.19H2.53v17.24h4.54ZM28.22 54.43V42.52c0-2.35 5.83-3.52 5.83-3.52s5.83 1.17 5.83 3.52v11.91h5.6V33.14H22.62v21.29h5.6Z" class="cls-3"/><path d="M28.84 54.43V41.68c0-2.51 6.26-3.77 6.26-3.77s6.26 1.26 6.26 3.77v12.75h6.02V31.65H22.82v22.78h6.02ZM22.83 23.73h24.56v7.92H22.83z" class="cls-1"/><path d="M52.3 54.43V44c0-2.06 5.12-3.08 5.12-3.08s5.12 1.03 5.12 3.08v10.43h4.92V35.79H47.37v18.64h4.92Z" class="cls-1"/><path d="M47.38 29.12h20.09v6.68H47.38zM7.45 54.43V44c0-2.06 5.12-3.08 5.12-3.08s5.12 1.03 5.12 3.08v10.43h4.92V35.79H2.53v18.64h4.92Z" class="cls-1"/><path d="M2.53 29.12h20.09v6.68H2.53zM27.71 20.89c0-1.58-2.44-2.37-2.44-2.37s-2.44.79-2.44 2.37v2.83h4.88v-2.83ZM47.38 20.89c0-1.58-2.44-2.37-2.44-2.37s-2.44.79-2.44 2.37v2.83h4.88v-2.83Z" class="cls-1"/></g><path d="M0 0h70v70H0z" class="cls-2"/></g></svg>