<svg xmlns="http://www.w3.org/2000/svg" id="Layer_2" data-name="Layer 2" viewBox="0 0 70 70"><defs><style>.cls-1{stroke:#000;stroke-linecap:round;stroke-linejoin:round;fill:none}.cls-2,.cls-3{fill:none;stroke-width:0}.cls-3{fill:#f47887}</style></defs><g id="Layer_1-2" data-name="Layer 1"><g><path d="M21.1 39.15v-5.09c8.67-2.87 17.31-2.87 25.96 0v5.01s-9.31-1.46-13.25-1.46c-2.79 0-12.71 1.53-12.71 1.53ZM16.65 12.37v8.7H3.21v-8.7h4.22v3.52h4.99v-3.52h4.23zM64.86 12.37v8.7H51.43v-8.7h4.22v3.52h4.99v-3.52h4.22zM6.12 22.78h7.35v39.41H6.12zM54.47 22.78h7.35v39.41h-7.35z" class="cls-3"/><path d="M52.17 62.37c-12.28 2.82-24.56 2.82-36.84 0V42.81c12.28-4.42 24.56-4.42 36.84 0v19.56Z" class="cls-3"/><path d="M54.47 62.18c-12.99 3.06-25.97 3.06-38.96 0V40.96c12.99-4.79 25.97-4.79 38.96 0v21.22Z" class="cls-1"/><path d="M21.14 39.2v-5.97c9.15-3.37 18.28-3.37 27.41 0v5.89M19.6 63.03V49.82c2.43-1.02 4.87-1.02 7.3 0v14.25M31.19 63.4V46.01c2.43-1.34 4.87-1.34 7.3 0v18.76M43 64.1V49.94c2.43-1.14 4.87-1.14 7.3 0v13.12M6.12 20.84h9.39v41.34H6.12zM54.48 20.84h9.39v41.34h-9.39zM18.43 10.86v9.98H3.21v-9.98h4.78v4.03h5.66v-4.03h4.78zM66.79 10.86v9.98H51.57v-9.98h4.78v4.03H62v-4.03h4.79z" class="cls-1"/></g><path d="M0 0h70v70H0z" class="cls-2"/></g></svg>