<svg xmlns="http://www.w3.org/2000/svg" id="Layer_2" viewBox="0 0 71 71"><defs><style>.cls-1,.cls-2{fill:none;stroke:#000;stroke-miterlimit:10}.cls-1{opacity:0}.cls-2{stroke-width:.5px}.cls-3{fill:#f47887}</style></defs><g id="Layer_1-2" data-name="Layer_1"><path d="M.5.5h70v70H.5z" class="cls-1"/><g><path d="M9.98 18.42c3.26-2.07 8.1 6.02 13.2 5.83s4.68-4.45 5.1-8.41.98-5.23 2.34-5.1 1.26 1.51 1.26 2.17-.03 2.23.66 2.2.68-.96.74-2.2.32-2.47 1.5-2.47 1.37 1.13 1.37 2.17.08 2.36.74 2.39 1.03-1.24 1.1-2.45.42-2.34 1.58-2.28 1.55 1.79 1.58 3.79.27 15.85.27 15.85 2.9.6 5.51 0 3.96-3.2 7.72-2.65 8.33 2.43 7.92 5.04-6.54 1.79-9.44 2.9S40.56 43.01 37.7 44s-6.29 3.16-14.74 3.12c-8.45-.04-10.62-5.47-11.43-9.44S8.36 19.44 9.99 18.4ZM25.48 47.41h2.19v17.72h-2.19z" class="cls-3"/><path d="M10.01 18.42c3.41-2.07 8.47 6.02 13.8 5.83s4.89-4.45 5.33-8.41 1.02-5.23 2.45-5.1 1.32 1.51 1.32 2.17-.03 2.23.69 2.2.71-.96.77-2.2.33-2.47 1.57-2.47 1.43 1.13 1.43 2.17.08 2.36.77 2.39 1.07-1.24 1.15-2.45.44-2.34 1.65-2.28 1.62 1.79 1.65 3.79.29 15.85.29 15.85 3.03.6 5.76 0 4.14-3.2 8.07-2.65 8.71 2.43 8.28 5.04-6.85 1.79-9.87 2.9-13.15 7.81-16.13 8.8-6.58 3.16-15.42 3.12c-8.84-.04-11.1-5.47-11.96-9.44S8.29 19.44 10 18.4Z" class="cls-2"/><path d="M42.88 29.92s-19.41-3.79-32.27 2.28" class="cls-2"/><path d="M10.79 33.24h17.19s.76-2.15 0-4.47M30.2 28.77s-.59 4.48 1.94 4.48 1.84-4.32 1.84-4.32M35.08 29s-.59 4.48 1.94 4.48 1.86-4.15 1.86-4.15M51.68 28.49 53 32.35s-3.39.58-5.13-2.29M31.13 16.57h2.36M38.22 16.57h2.36M34.63 18.83h2.36M31.13 21.36h2.36M38.22 21.36h2.36M25.48 47.13v17.99h2.19V47.06" class="cls-2"/></g></g></svg>