<svg xmlns="http://www.w3.org/2000/svg" id="Layer_2" data-name="Layer 2" viewBox="0 0 70 70"><defs><style>.cls-1{stroke:#000;stroke-linecap:round;stroke-linejoin:round;fill:none}.cls-2,.cls-3{fill:none;stroke-width:0}.cls-3{fill:#f47887}</style></defs><g id="Layer_1-2" data-name="Layer 1"><g><path d="M28.35 62.64v-5.76h11.58v5.76M28.35 55.09V39.08h11.58v16.01M41.67 62.64V41.45h23.01v21.19M3.78 62.64V41.45h23.01v21.19M28.35 37.59V25.75h11.58v11.84M28.35 24.61v-4.42h11.58v4.42" class="cls-3"/><g><path d="M41.66 39.83h24.91v23.12H41.66zM3.43 39.83h24.91v23.12H3.43z" class="cls-1"/><g><path d="M3.43 34.29v5.54M11.74 34.29v5.54M20.05 34.29v5.54M28.35 34.29v5.54" class="cls-1"/></g><g><path d="M41.67 34.29v5.54M49.97 34.29v5.54M58.27 34.29v5.54M66.57 34.29v5.54" class="cls-1"/></g><path d="M8.97 62.95V47.32h4.15v15.63M18.66 62.95V47.32h4.15v15.63M47.19 62.95V47.32h4.15v15.63M56.88 62.95V47.32h4.15v15.63" class="cls-1"/></g><g><path d="M36.71 11.88c0-2.22-2.57-3.33-2.57-3.33s-2.57 1.11-2.57 3.33v7.09h5.14v-7.09Z" class="cls-3"/><path d="M28.35 18.98h13.3v43.97h-13.3z" class="cls-1"/><circle cx="35" cy="31.1" r="2.88" class="cls-1"/><path d="M28.35 24.61h13.31M28.35 37.59h13.31M28.35 55.32h13.31M38.44 11.88c0-2.22-3.44-3.33-3.44-3.33s-3.44 1.11-3.44 3.33v7.09h6.87v-7.09Z" class="cls-1"/></g></g><path d="M0 0h70v70H0z" class="cls-2"/></g></svg>