<svg xmlns="http://www.w3.org/2000/svg" id="Layer_2" data-name="Layer 2" viewBox="0 0 70 70"><defs><style>.cls-1{stroke:#000;stroke-linecap:round;stroke-linejoin:round;fill:none}.cls-2,.cls-3{fill:none;stroke-width:0}.cls-3{fill:#f47887}</style></defs><g id="Layer_1-2" data-name="Layer 1"><g><path d="M4.45 41.85H64.4l-2.34-7.17-55.25-.03-2.36 7.2zM11.68 33.04h45.84l-2.44-7.16-41.6-.04-1.8 7.2zM18.68 24.52h32.04l-2.44-7.16-27.8-.04-1.8 7.2zM25.9 15.86h17.82L41.28 8.7 27.7 8.66l-1.8 7.2zM60.48 67.14V43.23H8.49v23.91h16.43V47.83h20v19.31h15.56z" class="cls-3"/><path d="M62.05 67.14V41.85H8.47v25.29H24.9V47.83h20.01v19.31h17.14zM4.44 41.85h61.65l-2.83-8.67H7.27l-2.83 8.67zM11.19 33.18h48.14l-2.83-8.66H14.03l-2.84 8.66zM18.24 24.52h34.05l-2.84-8.66H21.07l-2.83 8.66zM25.49 15.86h19.55L42.2 7.2H28.32l-2.83 8.66zM7.27 33.18v-4.33M63.23 33.18v-4.33M56.28 24.52v-4.33M14.19 24.52v-4.33M49.23 15.86v-4.33M21.33 15.86v-4.33M35.28 15.86v-4.33M42.57 7.2V2.86M28.47 7.2V2.86M35.28 33.18v-4.33M21.33 33.18v-4.33M49.23 33.18v-4.33M28.47 24.52v-4.33M28.47 41.85v-4.34M42.57 24.52v-4.33M42.57 41.85v-4.34M14.19 41.85v-4.34M56.28 41.85v-4.34" class="cls-1"/></g><path d="M0 0h70v70H0z" class="cls-2"/></g></svg>