<svg xmlns="http://www.w3.org/2000/svg" id="Layer_2" viewBox="0 0 71 71"><defs><style>.cls-1,.cls-2{fill:none;stroke:#000;stroke-miterlimit:10}.cls-1{opacity:0}.cls-2{stroke-width:.5px}.cls-3{fill:#f47887}</style></defs><g id="Layer_1-2" data-name="Layer_1"><path d="M.5.5h70v70H.5z" class="cls-1"/><g><path d="M48.48 67.99H21.51V56.07l1.97-1.03 2.89-47.71 4.33-3.45h8.67l4.45 3.7 2.85 47.62 1.81 1.1v11.69z" class="cls-3"/><path d="M31 3.01h9.03v1.73H31zM31 4.74h9.03v1.73H31z" class="cls-2"/><path d="M31 6.47h9.03v10.01H31zM40.97 51.95H30.06L31 16.48h9.03l.94 35.47zM40.03 3.01l4.61 3.69 2.85 48.1M31 3.01l-4.45 3.67-3 48.22M26.35 9.83 31 6.47M25.69 20.46 31 16.48M26.35 8.1 31 4.74M44.68 8.15l-4.65-3.36M44.68 9.83l-4.65-3.36M45.44 20.25l-5.41-4.09" class="cls-2"/><path d="M34.88 7.88h1.25c.92 0 1.67.75 1.67 1.67v5.11h-4.59V9.55c0-.92.75-1.67 1.67-1.67ZM43.76 16.34l-2.02-1.36v-4.72c0-.31.5-.47.81-.26.77.52 1.21 1.25 1.21 2.01v4.33ZM27.33 16.34l2.02-1.36v-4.72c0-.31-.5-.47-.81-.26-.77.52-1.21 1.25-1.21 2.01v4.33ZM33.21 19.03h4.59v31.12h-4.59zM28.69 20.46l-1.41.95-1.59 30.36 2.32-1.31.68-30zM42.36 20.25l1.41.95 1.58 30.37-2.31-1.31-.68-30.01zM49.49 56.18l-7.13-4.23H28.69l-7.18 3.99v12.05h27.98V56.18zM42.36 51.95v16.04M28.69 51.95v16.04" class="cls-2"/><path d="m49.49 58.92-7.13-4.12H28.69l-7.18 4.3" class="cls-2"/></g></g></svg>