<svg xmlns="http://www.w3.org/2000/svg" id="Layer_2" data-name="Layer 2" viewBox="0 0 70 70"><defs><style>.cls-1{stroke:#000;stroke-linecap:round;stroke-linejoin:round;fill:none}.cls-2,.cls-3{fill:none;stroke-width:0}.cls-3{fill:#f47887}</style></defs><g id="Layer_1-2" data-name="Layer 1"><g><path d="M44.9 6.1c0-2.51-10.03-3.77-10.03-3.77S24.84 3.59 24.84 6.1v4.52h20.07V6.1ZM10.49 19.54h48.72v6.3H10.49zM15.26 12.18h39.36v4.93H15.26zM25.31 66.56V43.03c0-3.81 9.54-5.72 9.54-5.72s9.54 1.91 9.54 5.72v23.53h14.82V27.81H10.49v38.75h14.82Z" class="cls-3"/><path d="M25.98 66.56V41.83c0-4.01 9.98-6.01 9.98-6.01s9.98 2 9.98 6.01v24.73h15.49V25.83H10.49v40.72h15.49Z" class="cls-1"/><path d="M10.49 17.76h50.93v8.07H10.49z" class="cls-1"/><g><path d="M16.68 21.55h5.29v4.28h-5.29zM33.31 21.55h5.29v4.28h-5.29zM49.95 21.55h5.29v4.28h-5.29z" class="cls-1"/></g><path d="M47.08 6.1c0-2.51-11.12-3.77-11.12-3.77S24.84 3.59 24.84 6.1v4.52h22.24V6.1ZM56.65 36.94c0-1.98-2.94-2.97-2.94-2.97s-2.94.99-2.94 2.97v3.55h5.89v-3.55ZM50.77 40.49h5.89v21.65h-5.89zM21.15 36.94c0-1.98-2.94-2.97-2.94-2.97s-2.94.99-2.94 2.97v3.55h5.89v-3.55ZM15.26 40.49h5.89v21.65h-5.89zM15.26 10.69h41.39v6.54H15.26z" class="cls-1"/></g><path d="M0 0h70v70H0z" class="cls-2"/></g></svg>