<svg xmlns="http://www.w3.org/2000/svg" id="Layer_2" data-name="Layer 2" viewBox="0 0 70 70"><defs><style>.cls-1{stroke-linejoin:round}.cls-1,.cls-2,.cls-3,.cls-4,.cls-5{fill:none}.cls-1,.cls-2,.cls-4,.cls-5{stroke:#000}.cls-1,.cls-2,.cls-5{stroke-width:.9px}.cls-1,.cls-4,.cls-5{stroke-linecap:round}.cls-2,.cls-4,.cls-5{stroke-miterlimit:10}.cls-3,.cls-6{stroke-width:0}.cls-6{fill:#f47887}</style></defs><g id="Layer_1-2" data-name="Layer 1"><g><path d="M31.83 9.11c0-1.31 1.06-2.36 2.36-2.36s2.36 1.06 2.36 2.36h-4.73ZM11.92 32.13c0-11.84 9.82-21.44 21.93-21.44s21.93 9.6 21.93 21.44H50.7v-4.81H20.44l.07 4.81h-8.58ZM25.99 46.31h16.35v1.42H25.99zM41.96 44.9c0-4.23-7.85-7.65-7.85-7.65s-7.85 3.43-7.85 7.65h15.69ZM31.57 51.79h5.55v14.29h-5.55z" class="cls-6"/><path d="M26 49.27v16.81h5.57V50.52h6.92v15.56h3.86V49.27H26zM49.82 34.03h13.6v2.32h-13.6zM4.81 34.03h13.6v2.32H4.81zM20.24 28.69h28.01v2.32H20.24zM4.81 37.91h13.6v28.17H4.81zM49.82 37.91h13.6v28.17h-13.6z" class="cls-6"/><path d="M48.25 32.45v33.63h-4.24V45.13c0-4.98-9.01-9.01-9.01-9.01s-9 4.03-9 9.01v20.95h-5.76V32.45h28.01Z" class="cls-6"/><path d="M20.24 27.32h29.58v38.76H20.24z" class="cls-2"/><path d="M4.57 32.46h15.67v33.63H4.57zM49.82 32.46h15.67v33.63H49.82zM20.24 31.01h29.58M4.57 36.35h15.67M49.82 36.35h15.67" class="cls-2"/><path d="M11.92 32.46C11.92 19.71 22.25 9.38 35 9.38s23.08 10.33 23.08 23.08M31.54 9.37a3.461 3.461 0 0 1 6.92 0" class="cls-2"/><path d="M35 5.91V2.05" class="cls-5"/><path d="M44.01 45.13c0-4.97-9.01-9.01-9.01-9.01s-9.01 4.03-9.01 9.01v20.95H44V45.13Z" class="cls-4"/><path d="M31.57 50.52h6.92v15.56h-6.92z" class="cls-5"/><path d="M25.99 44.88H44v2.85H25.99z" class="cls-1"/></g><path d="M0 0h70v70H0z" class="cls-3"/></g></svg>