<svg xmlns="http://www.w3.org/2000/svg" id="Layer_2" data-name="Layer 2" viewBox="0 0 64.28 44.12"><defs><style>.cls-1{stroke:#f47887}.cls-1,.cls-2{fill:none;stroke-miterlimit:10}.cls-3{fill:#f47887}.cls-2{stroke:#000}</style></defs><g id="Layer_1-2" data-name="Layer 1"><g><path d="M36.14 17.72h11.73v1.17H36.14z" class="cls-3"/><ellipse cx="47.25" cy="16.54" class="cls-1" rx="14.76" ry="14.96"/><path d="M7.04 11.72c.7 0 1.26.57 1.26 1.26v21.31H5.77V12.98c0-.7.57-1.26 1.26-1.26ZM46.88 15.65c1.19 0 2.16.97 2.16 2.16v15.58c0 .5-.4.9-.9.9h-2.53c-.5 0-.9-.4-.9-.9V17.81c0-1.19.97-2.16 2.16-2.16Z" class="cls-3"/><circle cx="6.63" cy="21.13" r="3.75" class="cls-3"/><path d="M.5 37.06h60.49v6.56H.5z" class="cls-3"/><circle cx="47.75" cy="16.53" r="16.03" class="cls-2"/><circle cx="7.65" cy="20.88" r="4.34" class="cls-2"/><path d="M9.69 24.72v9.58H5.62v-9.58" class="cls-2"/><path d="M.5 34.29h63.28v9.32H.5z" class="cls-2"/><circle cx="47.75" cy="16.53" r="13.84" class="cls-2"/><circle cx="7.7" cy="20.88" r="1.99" class="cls-2"/><path d="M42.36 1.43 5.62 17.05v-3.98c0-1.12.91-2.03 2.04-2.03a2.034 2.034 0 0 1 2.03 2.03v3.97M43.53 32.01 7.65 25.22M44.72 16.54a3.12 3.12 0 0 1 3.03-2.39 3.106 3.106 0 0 1 3.11 3.11v12.76M44.64 30.02V18.9M50.86 32.26v2.04h-6.22v-2.04" class="cls-2"/><path d="M47.79 16.54H37.32c-.65 0-1.18.53-1.18 1.18 0 .65.53 1.18 1.18 1.18h10.55c.65 0 1.18-.53 1.18-1.18s-.53-1.18-1.18-1.18h-.08Z" class="cls-2"/></g></g></svg>