<svg xmlns="http://www.w3.org/2000/svg" id="Layer_2" data-name="Layer 2" viewBox="0 0 70 70"><defs><style>.cls-1{stroke:#000;stroke-linecap:round;stroke-linejoin:round;fill:none}.cls-2,.cls-3{fill:none;stroke-width:0}.cls-3{fill:#f47887}</style></defs><g id="Layer_1-2" data-name="Layer 1"><g><path d="m51.48 39.57 13.23-13.3-2.49-2.42-15.28 15.72h4.54z" class="cls-3"/><path d="m46.51 39.57 16.92-16.93 3.27 3.27-13.66 13.66" class="cls-1"/><path d="M13.11 40.88h38.37v3.31H13.11z" class="cls-3"/><path d="M13.11 39.57h40v4.62h-40zM53.1 44.19l4.22 10.41M13.11 44.19 8.49 54.6" class="cls-1"/><g><path d="M39.81 19.88c-3.43-8.13-13.92-11.6-20.04-8.86-8.06 3.6-11.4 12.56-7.96 20.69l28.01-11.83Z" class="cls-3"/><path d="M41.24 19.27c-3.43-8.13-12.81-11.94-20.94-8.5S8.36 23.58 11.8 31.71l29.44-12.43ZM20.31 10.77l-1.56-3.68M26.53 25.49l5.83 13.81" class="cls-1"/></g><path d="M63.5 58.41H50.54M46.1 58.41H34.89M30.04 58.41h-8.29M54.69 62.91H46.4M16.15 58.41H3.19M25.89 62.91H12.93M42.56 62.91H29.6" class="cls-1"/></g><path d="M0 0h70v70H0z" class="cls-2"/></g></svg>