<svg xmlns="http://www.w3.org/2000/svg" id="Layer_2" data-name="Layer 2" viewBox="0 0 54.19 65.1"><defs><style>.cls-1{fill:#f47887}.cls-2{fill:none;stroke:#000;stroke-miterlimit:10}</style></defs><g id="Layer_1-2" data-name="Layer 1"><g><g><path d="M43.57 52.02s3.79 2.94 2.36 5.93c-1.43 2.99-3.15 2.36-3.15 2.36s3.39-4.02.79-8.29ZM47.12 55.54s4.15 1.53 5.92.81-.63 2.77-.63 2.77-3.29-.44-5.23-1.81" class="cls-1"/><path d="M43.49 53.92c1.14 5.87-6.9 9.53-14.73 8.34S-.09 57.92.3 48.59c9.28 6.2 14.99 5.31 21.21 3.68 7.11-1.86 20.18-7.6 21.97 1.65Z" class="cls-1"/><path d="M44.65 54.66c1.14 5.87-7.05 10.83-14.87 9.64C21.95 63.11.11 58.2.51 48.87c9.28 6.2 14.99 5.31 21.21 3.68 7.11-1.86 21.13-7.14 22.93 2.11Z" class="cls-2"/><path d="M42.01 61.05c.52.36 1.12.55 1.73.52 2.02-.08 3.58-2.41 3.46-5.2s-1.86-4.99-3.88-4.9c-.06 0-.12 0-.18.03" class="cls-2"/><path d="M47.12 55.54s4.15 1.53 5.92.81-.63 2.77-.63 2.77-3.29-.44-5.23-1.81M41.9 53.25s-3.36-2.8-6.82-1.62" class="cls-2"/></g><g><path d="M39.62 23.61s5.53-1.58 7.41 1.93.04 4.72.04 4.72-1.47-6.13-7.45-6.65ZM45.54 22.69s4.43-2.92 4.98-5.14 2.23 2.57 2.23 2.57-2.76 2.87-5.46 3.77" class="cls-1"/><path d="M41.4 25.05c6.48 3.06 4.3 13.43-2.4 20.15S14.32 69.99 5.59 62.98c12.58-4.56 15.77-10.71 18.62-17.88 3.25-8.19 6.98-24.89 17.19-20.06Z" class="cls-1"/><path d="M42.94 24.45c6.48 3.06 5.45 14.5-1.25 21.21S14.73 69.99 6 62.98c12.58-4.56 15.77-10.71 18.62-17.88 3.25-8.19 8.11-25.49 18.32-20.65Z" class="cls-2"/><path d="M47.24 31.54c.72-.25 1.32-.69 1.73-1.31 1.36-2.01.21-5.17-2.57-7.04s-6.14-1.75-7.49.27c-.04.06-.08.12-.1.19" class="cls-2"/><path d="M45.54 22.69s4.43-2.92 4.98-5.14 2.23 2.57 2.23 2.57-2.76 2.87-5.46 3.77M39.62 26.1s-5.1 1.26-6.41 5.43" class="cls-2"/></g><g><path d="M37.55 11.99s.69-4.84-2.72-5.91-4.26.64-4.26.64 5.73.36 6.98 5.27ZM37.6 6.92s2.05-4.11 3.99-4.89S38.98.54 38.98.54s-2.23 2.71-2.68 5.09" class="cls-1"/><path d="M36.02 10.71c-3.62-4.97-12.68-1.68-17.86 4.87C12.98 22.12-.97 39.69 6.5 45.98c2.47-11.15 7.59-14.69 13.68-18.08 6.96-3.87 21.54-9.36 15.84-17.2Z" class="cls-1"/><path d="M36.35 9.34c-3.62-4.97-13.8-2.49-18.97 4.06-5.17 6.55-18.4 25.95-10.93 32.24 2.47-11.15 7.59-14.69 13.68-18.08 6.96-3.87 21.93-10.39 16.23-18.22Z" class="cls-2"/><path d="M37.62 12.68c.06-.03.11-.07.16-.11 1.64-1.41 1.31-4.23-.74-6.29s-5.05-2.57-6.69-1.14c-.51.43-.82.99-.95 1.63" class="cls-2"/><path d="M37.6 6.92s2.05-4.11 3.99-4.89S38.98.54 38.98.54s-2.23 2.71-2.68 5.09M35.3 12.35s-.46 4.43-4.06 6.12" class="cls-2"/></g></g></g></svg>