<svg xmlns="http://www.w3.org/2000/svg" id="Layer_2" data-name="Layer 2" viewBox="0 0 70 70"><defs><style>.cls-1{stroke:#000;stroke-linecap:round;stroke-linejoin:round;fill:none}.cls-2,.cls-3{fill:none;stroke-width:0}.cls-3{fill:#f47887}</style></defs><g id="Layer_1-2" data-name="Layer 1"><g><path d="M7.91 28.67c0-1.49-1.59-2.23-1.59-2.23s-1.59.74-1.59 2.23v2.67h3.19v-2.67ZM64.49 28.67c0-1.49-1.59-2.23-1.59-2.23s-1.59.74-1.59 2.23v2.67h3.19v-2.67ZM45.17 26.62c4.02-4.33-10.75-14.11-10.75-14.11S19.8 22.46 23.67 26.62h21.5ZM4.36 33.04h17.43v4.54H4.36zM46.98 33.04h17.43v4.54H46.98zM23.84 28.02h21.28v5.59H23.84zM29.42 55.37V43.36c0-2.37 5.9-3.55 5.9-3.55s5.9 1.18 5.9 3.55v12.01h3.92V35.46H23.76v19.91h5.67ZM51.78 55.37v-9.89c0-1.95 4.74-2.92 4.74-2.92s4.74.97 4.74 2.92v9.89h3.15v-16.4H47.23v16.4h4.56ZM9.28 55.37v-9.89c0-1.95 4.74-2.92 4.74-2.92s4.74.97 4.74 2.92v9.89h3.15v-16.4H4.72v16.4h4.56Z" class="cls-3"/><path d="M29.51 55.37V43.36c0-2.37 5.9-3.55 5.9-3.55s5.9 1.18 5.9 3.55v12.01h5.67V33.91H23.85v21.46h5.67ZM23.84 26.44h23.13v7.46H23.84zM46.98 26.44c4.33-4.33-11.57-14.11-11.57-14.11s-15.73 9.95-11.57 14.11h23.13ZM51.62 55.37v-9.82c0-1.94 4.83-2.91 4.83-2.91s4.83.97 4.83 2.91v9.82h4.64V37.81H46.99v17.56h4.64Z" class="cls-1"/><path d="M46.98 31.52h18.93v6.29H46.98zM9.36 55.37v-9.82c0-1.94 4.83-2.91 4.83-2.91s4.83.97 4.83 2.91v9.82h4.64V37.81H4.72v17.56h4.64ZM4.72 31.52h18.93v6.29H4.72zM9.32 28.67c0-1.49-2.3-2.23-2.3-2.23s-2.3.74-2.3 2.23v2.67h4.6v-2.67Z" class="cls-1"/><path d="M65.9 28.85c0-1.49-2.3-2.23-2.3-2.23s-2.3.74-2.3 2.23v2.67h4.6v-2.67Z" class="cls-1"/></g><path d="M0 0h70v70H0z" class="cls-2"/></g></svg>