<svg xmlns="http://www.w3.org/2000/svg" id="Layer_2" viewBox="0 0 71 71"><defs><style>.cls-1,.cls-2{fill:none;stroke:#000;stroke-miterlimit:10}.cls-1{opacity:0}.cls-2{stroke-width:.5px}.cls-3{fill:#f47887}</style></defs><g id="Layer_1-2" data-name="Layer_1"><path d="M.5.5h70v70H.5z" class="cls-1"/><g><path d="m16.06 51.6-5.95-2.12s-5.68-.21-7.14-6.52c0 0 2.29 1.76 3.52 1.47 0 0 3.16-1.47 4.18-1.29l.4-2.36s-2.36-2.46-2.12-3.08 4.08-.4 4.08-.4l1.87-4.1s-2.71-2.56-2.58-5.01l3.86 1.96s2.21-4.25 3.53-5.73 5.09-7.02 12.96-6.29c1.81.17 3.14 3.47 7.12 3.6s6.71-2.48 7.45-2.51 7.95 2.14 7.95 2.14l4.56.46 3.29 1.53 1.38 1.88 1.26 3.1.19 3.87-.46 3.28-.57 2.7-.27 2.18.61 1.8.92 1.3.69 1.76-.15 1.3-.48 2.1.32 1.67.27 1.52-.73.56h-7.17l-.66-.43.06-.71 1.06-.21.57-.85.98-.66-.16-1.32.72-.72-.35-1.37-.41-1.21-.38-1.67-.09-1.57-3.34.16-1.67-.6-.59-1.01-.25-1.04-.06-.6-1.46.87-.08.52.46 1.54 1.45 3.23.55 1.38-1.25 1.89.17 2.59-.04 1.72-1.81.34-6.12-.25-.03-.64.4-.47.42-.69.66-.69.86-.98-.16-1.21V46.7l-.44-.77-.24-.89-.39-1.56-.39-1.14-2.62.51-4.95-.11-1.21.99-.42.67-.12 2.7.57 2.88 1.03 1.61.15.88-1.64.59-3.81-.07-5.26.19-4.56-.5.02-.69.5-.49.67-.62.89-.64.74-.94.22-1.67.23-1.3-.18-2.07-1.31-1.63-1.11-1.58-1.62.5-.97 1.93-1.16 3.13-1.95 2.37-2.94 2.62Z" class="cls-3"/><path d="M10.11 49.48s-6.13-.31-7.14-6.52c0 0 2.59 2.22 4.19 1.24s3.51-1.06 3.51-1.06l-.56 6.33Z" class="cls-2"/><path d="M24.69 41.05s-2.33-.16-2.59 2.43-4.96 8.07-6.05 8.12-5.95-2.12-5.95-2.12l.56-6.33s0-1.48.52-2.36 3.95-7.58 3.95-7.58" class="cls-2"/><path d="M11.2 40.79s-2.58-2.21-2.39-3.1 4.3-.53 4.3-.53M17.4 33.98s-4.32.33-5.21-6l6.04 3" class="cls-2"/><path d="M16.08 29.92s5.37-10.96 13.68-11.72 5.77 3.39 11.39 2.77 4-1.77 6.85-1.77 5.93 1.69 9.62 1.54 8.49 1.84 9.12 8.14-1.55 9.37-1.55 11.2 2.31 3.75 2.31 5.3-1.39 1.83-1.32 3.27 1 3.19.4 3.63c-.45.33-5.45.17-7.97.06-.43-.02-.59-.57-.23-.81 1.19-.79 2.82-2.06 2.74-3-.12-1.47-.2-5.98-1.04-6.3s-5.34.52-5.94-3.83.04-8.09.04-8.09" class="cls-2"/><path d="M54.16 38.4s-.2.2-.6.51c-1.99 1.58-8.88 6.04-19.44 2.75" class="cls-2"/><path d="M52.66 39.57s.86 3.66 2.17 5.41-1.18 2.63-1.09 3.63.93 3.42.19 3.86c-.52.31-4.77.19-7.26.08-.57-.02-.81-.75-.37-1.1 1.14-.9 2.49-2.24 2.23-3.36-.44-1.87-1.5-5.97-1.5-5.97M39.29 42.74s-1.59.92-1.67 1.88-.24 3.83.32 5.02 1.55 1.94 1.35 2.83-5.89.36-5.89.36" class="cls-2"/><path d="M23.95 35.89s-.79 4.14 2.95 8.05c1.02 1.07-.16 3.75 0 4.98s-3.15 2.58-2.91 3.54 9.92.79 10.12.42-2.31-2.92-2.31-4.12-.48-4.14.36-4.66 3.17-2.71 3-8.61" class="cls-2"/><circle cx="16.84" cy="39.85" r=".76" class="cls-2"/></g></g></svg>