<svg xmlns="http://www.w3.org/2000/svg" id="Layer_2" data-name="Layer 2" viewBox="0 0 70 70"><defs><style>.cls-1{stroke:#000;stroke-linecap:round;stroke-linejoin:round;fill:none}.cls-2,.cls-3{fill:none;stroke-width:0}.cls-3{fill:#f47887}</style></defs><g id="Layer_1-2" data-name="Layer 1"><g><path d="M16.34 32.11v-6.5h35.92v6.5h-4.41v-4.08h-3.53v4.08l-7.66-.02v-3.82h-3.53v3.84h-7.45v-4.08h-3.53v4.08h-5.81zM14.96 8.88c0-2.11-3.02-3.17-3.02-3.17S8.92 6.77 8.92 8.88v3.8h6.03v-3.8ZM27.42 11.35c0-2.11-3.02-3.17-3.02-3.17s-3.02 1.06-3.02 3.17v3.8h6.03v-3.8ZM47.34 11.35c0-2.11-3.02-3.17-3.02-3.17s-3.02 1.06-3.02 3.17v3.8h6.03v-3.8ZM59.57 8.88c0-2.11-3.02-3.17-3.02-3.17s-3.02 1.06-3.02 3.17v3.8h6.03v-3.8ZM25.49 66.73V47.36c0-3.82 9.51-5.73 9.51-5.73s9.51 1.91 9.51 5.73v19.37h7.75V33.46H16.34v33.27h9.14ZM53.66 14.35h5.79v52.38h-5.79zM8.92 14.35h5.79v52.38H8.92zM21.5 16.93h5.79v7.49H21.5zM41.36 16.93h5.79v7.49h-5.79z" class="cls-3"/><path d="M25.49 66.73V47.36c0-3.82 9.51-5.73 9.51-5.73s9.51 1.91 9.51 5.73v19.37h9.14V32.12H16.34v34.61h9.14Z" class="cls-1"/><path d="M16.34 24.42h37.31v7.7H16.34z" class="cls-1"/><g><path d="M22.15 28.03h3.52v4.08h-3.52zM33.24 28.03h3.52v4.08h-3.52zM44.32 28.03h3.52v4.08h-3.52z" class="cls-1"/></g><path d="M8.92 12.68h7.42v54.05H8.92zM53.66 12.68h7.42v54.05h-7.42zM61.08 8.37c0-2.4-3.71-3.59-3.71-3.59s-3.71 1.2-3.71 3.59v4.31h7.42V8.37ZM16.34 8.37c0-2.4-3.71-3.59-3.71-3.59s-3.71 1.2-3.71 3.59v4.31h7.42V8.37ZM28.64 11.2c0-2.4-3.57-3.59-3.57-3.59s-3.57 1.2-3.57 3.59v4.31h7.13V11.2ZM48.5 11.2c0-2.4-3.57-3.59-3.57-3.59s-3.57 1.2-3.57 3.59v4.31h7.13V11.2ZM21.5 15.51h7.13v8.91H21.5zM41.36 15.51h7.13v8.91h-7.13z" class="cls-1"/></g><path d="M0 0h70v70H0z" class="cls-2"/></g></svg>