<svg xmlns="http://www.w3.org/2000/svg" id="Layer_2" data-name="Layer 2" viewBox="0 0 70 70"><defs><style>.cls-1{stroke:#000;stroke-linecap:round;stroke-linejoin:round;fill:none}.cls-2,.cls-3{fill:none;stroke-width:0}.cls-3{fill:#f47887}</style></defs><g id="Layer_1-2" data-name="Layer 1"><g><path d="M3.98 53.6h60.67v3.73H3.98zM3.76 31.49H20.1v20.2H3.76zM48.29 31.49h16.34v20.2H48.29zM21.47 20.43c0-3.27 12.41-4.91 12.41-4.91s12.41 1.64 12.41 4.91v30.94H21.48V20.43ZM6.38 26.55c0-.97-1.5-1.45-1.5-1.45s-1.5.48-1.5 1.45v3.1h3v-3.1ZM15.38 26.55c0-.97-1.5-1.45-1.5-1.45s-1.5.48-1.5 1.45v3.1h3v-3.1ZM56.1 26.55c0-.97-1.5-1.45-1.5-1.45s-1.5.48-1.5 1.45v3.1h3v-3.1ZM65.17 26.55c0-.97-1.5-1.45-1.5-1.45s-1.5.48-1.5 1.45v3.1h3v-3.1Z" class="cls-3"/><path d="M37.39 29.29c0-1.28-1.98-1.92-1.98-1.92s-1.98.64-1.98 1.92v4.08h3.95v-4.08ZM41.34 20.94c0-1.28-1.98-1.92-1.98-1.92s-1.98.64-1.98 1.92v4.08h3.95v-4.08ZM66.63 25.66c0-1.28-1.98-1.92-1.98-1.92s-1.98.64-1.98 1.92v4.08h3.95v-4.08ZM57.46 25.66c0-1.28-1.98-1.92-1.98-1.92s-1.98.64-1.98 1.92v4.08h3.95v-4.08ZM16.88 25.66c0-1.28-1.98-1.92-1.98-1.92s-1.98.64-1.98 1.92v4.08h3.95v-4.08ZM7.72 25.66c0-1.28-1.98-1.92-1.98-1.92s-1.98.64-1.98 1.92v4.08h3.95v-4.08ZM33.3 20.94c0-1.28-1.98-1.92-1.98-1.92s-1.98.64-1.98 1.92v4.08h3.95v-4.08ZM45.15 29.29c0-1.28-1.98-1.92-1.98-1.92s-1.98.64-1.98 1.92v4.08h3.95v-4.08ZM29.35 29.29c0-1.28-1.98-1.92-1.98-1.92s-1.98.64-1.98 1.92v4.08h3.95v-4.08ZM37.39 38.45c0-1.28-1.98-1.92-1.98-1.92s-1.98.64-1.98 1.92v4.08h3.95v-4.08ZM45.15 38.45c0-1.28-1.98-1.92-1.98-1.92s-1.98.64-1.98 1.92v4.08h3.95v-4.08ZM29.35 38.45c0-1.28-1.98-1.92-1.98-1.92s-1.98.64-1.98 1.92v4.08h3.95v-4.08ZM14.91 36.1c0-1.28-1.98-1.92-1.98-1.92s-1.98.64-1.98 1.92v4.08h3.95V36.1ZM14.91 46.87c0-.78-1.98-1.17-1.98-1.17s-1.98.39-1.98 1.17v4.82h3.95v-4.82ZM37.39 47.62c0-1.28-1.98-1.92-1.98-1.92s-1.98.64-1.98 1.92v4.08h3.95v-4.08ZM45.15 47.62c0-1.28-1.98-1.92-1.98-1.92s-1.98.64-1.98 1.92v4.08h3.95v-4.08ZM29.35 47.62c0-1.28-1.98-1.92-1.98-1.92s-1.98.64-1.98 1.92v4.08h3.95v-4.08ZM3.76 51.7h62.86v5.96H3.76z" class="cls-1"/><path d="M22.09 19.03c0-3.46 13.1-5.18 13.1-5.18s13.1 1.73 13.1 5.18V51.7h-26.2V19.03ZM3.76 29.74h18.33V51.7H3.76zM59.44 36.1c0-1.28-1.98-1.92-1.98-1.92s-1.98.64-1.98 1.92v4.08h3.95V36.1ZM59.44 46.87c0-.78-1.98-1.17-1.98-1.17s-1.98.39-1.98 1.17v4.82h3.95v-4.82Z" class="cls-1"/><path d="M48.29 29.74h18.33V51.7H48.29z" class="cls-1"/></g><path d="M0 0h70v70H0z" class="cls-2"/></g></svg>