<svg xmlns="http://www.w3.org/2000/svg" id="Layer_2" data-name="Layer 2" viewBox="0 0 70 70"><defs><style>.cls-1{stroke-width:.9px}.cls-1,.cls-2{stroke:#000;stroke-linecap:round;stroke-linejoin:round}.cls-1,.cls-2,.cls-3{fill:none}.cls-3,.cls-4,.cls-5{stroke-width:0}.cls-4{fill:#f47887}.cls-5{fill:#e6e6e6}</style></defs><g id="Layer_1-2" data-name="Layer 1"><g><path d="M8.67 63.91h50.58v3.01H8.67z" class="cls-4"/><g><path d="M27.36 15.51h12.75v19.11H27.36zM27.36 36.16h12.75v25.52H27.36z" class="cls-4"/><g><path d="M36.3 8.03c0-1.99-3.09-2.99-3.09-2.99s-3.09 1-3.09 2.99v6.37h6.18V8.03Z" class="cls-4"/><circle cx="33.74" cy="27.88" r="2.3" class="cls-5"/><path d="M27.01 14.4h14.45v47.76H27.01z" class="cls-1"/><circle cx="34.23" cy="27.57" r="3.13" class="cls-2"/><path d="M27.01 20.52h14.45M27.01 34.62h14.45M27.01 53.86h14.45M37.97 6.7c0-2.41-3.73-3.62-3.73-3.62s-3.73 1.21-3.73 3.62v7.7h7.46V6.7ZM8.67 62.15h52.65v4.77H8.67zM27.01 14.4V8.74M41.46 14.4V8.74" class="cls-1"/></g><path d="M13.65 18.8s3.51-.46 4.15 1.73c0 0-.5-4.25 2.89-5.23M47.92 28.44s3.51-.46 4.15 1.73c0 0-.5-4.25 2.89-5.23" class="cls-1"/></g></g><path d="M0 0h70v70H0z" class="cls-3"/></g></svg>