<svg xmlns="http://www.w3.org/2000/svg" id="Layer_2" data-name="Layer 2" viewBox="0 0 70 70"><defs><style>.cls-1{stroke:#000;stroke-linecap:round;stroke-linejoin:round;stroke-width:.9px;fill:none}.cls-2,.cls-3{fill:none;stroke-width:0}.cls-3{fill:#f47887}</style></defs><g id="Layer_1-2" data-name="Layer 1"><g><path d="M42.12 43.12V57.4h-2.41V44.9c0-2.82-7.01-4.23-7.01-4.23s-2.3.46-4.28 1.39c1.41-2.12 6.69-3.17 6.69-3.17s7.01 1.41 7.01 4.23ZM24.98 16.54c0-1.21-1.8-1.81-1.8-1.81s-1.8.6-1.8 1.81v2.17h3.6v-2.17ZM46.93 16.54c0-1.21-1.8-1.81-1.8-1.81s-1.8.6-1.8 1.81v2.17h3.6v-2.17ZM21.51 21.01h3.35v5.05h-3.35zM43.78 21.01h3.15v5.05h-3.15zM21.16 27.6h25.77v3.93H21.16zM5.51 33.18h14.22v24.23H5.51zM49.64 33.18h14.22v24.23H49.64z" class="cls-3"/><path d="M28.26 57.4V43.11c0-2.82 7.02-4.23 7.02-4.23s7.02 1.41 7.02 4.23V57.4h4.63V33.17H21.51V57.4h6.75Z" class="cls-3"/><path d="M28.26 57.07V42.78c0-2.82 7.02-4.23 7.02-4.23s7.02 1.41 7.02 4.23v14.29h6.75V31.52H21.52v25.55h6.75Z" class="cls-1"/><path d="M21.51 25.85h27.53v5.68H21.51zM4.65 31.32h16.86v25.75H4.65zM26.77 16.09c0-1.77-2.63-2.65-2.63-2.65s-2.63.88-2.63 2.65v3.18h5.26v-3.18ZM49.04 16.09c0-1.77-2.63-2.65-2.63-2.65s-2.63.88-2.63 2.65v3.18h5.26v-3.18Z" class="cls-1"/><path d="M17.22 50.06c0-3.9-4.14-5.86-4.14-5.86s-4.14 1.95-4.14 5.86v7.02h8.28v-7.02ZM49.04 31.32H65.9v25.75H49.04z" class="cls-1"/><path d="M61.62 50.06c0-3.9-4.14-5.86-4.14-5.86s-4.14 1.95-4.14 5.86v7.02h8.28v-7.02ZM21.51 19.27h5.26v6.58h-5.26zM43.78 19.27h5.26v6.58h-5.26z" class="cls-1"/></g><path d="M0 0h70v70H0z" class="cls-2"/></g></svg>