<svg xmlns="http://www.w3.org/2000/svg" id="Layer_2" data-name="Layer 2" viewBox="0 0 59.58 59.14"><defs><style>.cls-1,.cls-2{fill:none;stroke:#000}.cls-1{stroke-linejoin:round}.cls-2{stroke-miterlimit:10}.cls-3{fill:#e47f88;stroke-width:0}</style></defs><g id="Layer_1-2" data-name="Layer 1"><g><path d="M12.5 48.33h3.51v10.31H12.5zM43.7 48.33h3.51v10.31H43.7zM33.58 5.79c.02-.15.02-.3.02-.46C33.6 2.66 31.68.5 29.32.5s-4.29 2.16-4.29 4.83v.24" class="cls-3"/><path d="M29.8 6.93C13.62 6.93.51 18.9.51 35.07v15.58h55.32V35.07C55.84 18.9 45.97 6.93 29.8 6.93Zm20.27 19.74H39.96c0-.66-4.55-2.69-10.17-2.69s-10.18 2.07-10.18 2.69H9.5v-1.16h10.11v-.04c0-.63 4.56-2.7 10.18-2.7s10.17 2.03 10.17 2.7v.04h10.11v1.16Zm0-6.24H39.96c0-.66-4.55-2.7-10.17-2.7s-10.18 2.07-10.18 2.7H9.5v-1.16h10.11v-.05c0-.62 4.56-2.7 10.18-2.7s10.17 2.04 10.17 2.7v.05h10.11v1.16Z" class="cls-3"/><path d="M12.5 35.07H.5C.5 18.9 13.61 5.79 29.79 5.79S59.08 18.9 59.08 35.08H47.21M43.7 35.07H16.01" class="cls-1"/><path d="M16.01 35.07H43.7M12.5 44.47H.5v-9.4h12M43.7 44.47H16.01M47.21 35.07h11.87v9.4H47.21M16.01 44.8H43.7M12.5 50.65H.5V44.8h12M43.7 50.65H16.01M47.31 44.8h11.77v5.85H47.21" class="cls-2"/><g><path d="M3.2 37.06h5.13v5.13H3.2zM8.54 37.06h3.96v5.13H8.54zM16.01 37.06h3v5.13h-3zM19.22 37.06h5.13v5.13h-5.13zM24.56 37.06h5.13v5.13h-5.13zM29.9 37.06h5.13v5.13H29.9zM35.24 37.06h5.13v5.13h-5.13zM40.59 37.06h3.11v5.13h-3.11zM47.21 37.06h3.85v5.13h-3.85zM51.27 37.06h5.13v5.13h-5.13z" class="cls-2"/></g><g><path d="M12.5 14.46h3.51v44.18H12.5zM43.7 14.46h3.51v44.18H43.7z" class="cls-1"/><path d="M50.07 19.27v3.5H39.96c0-.66-4.55-2.7-10.17-2.7s-10.18 2.07-10.18 2.7H9.5v-3.5h10.11v-.05c0-.63 4.56-2.7 10.18-2.7s10.17 2.04 10.17 2.7v.05h10.11Z" class="cls-1"/><path d="M50.07 25.51v3.5H39.96c0-.66-4.55-2.7-10.17-2.7s-10.18 2.07-10.18 2.7H9.5v-3.5h10.11v-.05c0-.63 4.56-2.7 10.18-2.7s10.17 2.04 10.17 2.7v.05h10.11Z" class="cls-1"/></g><path d="M35.81 6.42c.02-.17.03-.34.03-.51 0-2.99-2.42-5.41-5.4-5.41s-5.41 2.42-5.41 5.41c0 .09 0 .18.01.27" class="cls-1"/></g></g></svg>