<svg xmlns="http://www.w3.org/2000/svg" id="Layer_2" data-name="Layer 2" viewBox="0 0 70 70"><defs><style>.cls-1{stroke:#000;stroke-linecap:round;stroke-linejoin:round;fill:none}.cls-2,.cls-3{fill:none;stroke-width:0}.cls-3{fill:#f47887}</style></defs><g id="Layer_1-2" data-name="Layer 1"><g><path d="m13.38 44.21-.01-10.48h14.46l.42 9.16-2.32 2.99-.66-7.58-4.24-1.8-3.72 2.47-.31 5.88-1.27 1.89-2.35-2.53zM55.13 45.57l.01-11.74-14.59-.1v8.18l3.48 3.97.67-7.58 4.23-1.8 3.73 2.47.31 5.88 1.27 1.89.89-1.17z" class="cls-3"/><g><path d="M30.75 67.55V59.2c0-1.65 4.1-2.47 4.1-2.47s4.1.82 4.1 2.47v8.35h2.94V53.63H26.81v13.92h3.94ZM24.5 44.28v-4.46c0-1.64-3.75-2.47-3.75-2.47S17 38.18 17 39.82v5.03l4.43-2.8M51.56 44.28v-4.46c0-1.64-3.75-2.47-3.75-2.47s-3.75.83-3.75 2.47v5.03l4.43-2.8M26.81 18.56h14.13v5.45l-.4 3.2.01 14.13-5.7-3.7-3.78 2.52-1.62 1.18.51-13.85-.24-2.82-2.91-3.37v-2.74zM26.81 13.71h14.52v3.7H26.81z" class="cls-3"/><path d="M40.55 28.53h14.52v3.7H40.55zM13.32 28.53h14.52v3.7H13.32zM26.81 48.93h14.52v3.7H26.81zM4.98 50.03h9.38v13.63H4.98zM15.88 50.03h9.38v13.63h-9.38zM43.11 50.03h9.38v13.63h-9.38zM54.27 50.03h9.38v13.63h-9.38zM54.85 27.21c3.01-3.01-7.2-8.8-7.2-8.8s-10.01 5.91-7.12 8.8h14.31ZM41.16 12.26c3.01-3.01-7.2-8.8-7.2-8.8s-10.01 5.91-7.12 8.8h14.31ZM27.72 27.21c3.01-3.01-7.2-8.8-7.2-8.8s-10.01 5.91-7.12 8.8h14.31ZM40.77 47.45c3.01-3.01-7.2-8.8-7.2-8.8s-10.01 5.91-7.12 8.8h14.31ZM63.31 48.25c1.83-1.83-4.39-5.37-4.39-5.37s-6.1 3.6-4.34 5.37h8.72ZM52.06 48.25c1.83-1.83-4.39-5.37-4.39-5.37s-6.1 3.6-4.34 5.37h8.72ZM24.75 48.25c1.83-1.83-4.39-5.37-4.39-5.37s-6.1 3.6-4.34 5.37h8.72ZM14.02 48.25c1.83-1.83-4.39-5.37-4.39-5.37s-6.1 3.6-4.34 5.37h8.72Z" class="cls-3"/><path d="M30.75 67.55V59.2c0-1.65 4.1-2.47 4.1-2.47s4.1.82 4.1 2.47v8.35h3.94V52.63H26.81v14.92h3.94ZM26.81 47.44h16.08v5.19H26.81zM42.89 47.44c3.01-3.01-8.04-9.81-8.04-9.81s-10.93 6.91-8.04 9.81h16.08ZM42.89 21.3v-3.85H26.81v3.85M26.81 12.26h16.08v5.19H26.81zM42.89 12.26c3.01-3.01-8.04-9.81-8.04-9.81s-10.93 6.91-8.04 9.81h16.08ZM17.31 45.27v-6.3c0-1.64 4.1-2.47 4.1-2.47s4.1.83 4.1 2.47v6.2" class="cls-1"/><path d="M13.38 44.21V32.4h16.06v9.32M27.05 47.31h-.36M15.98 47.31h-.16M13.37 27.21h16.08v5.19H13.37zM29.45 27.21c3.01-3.01-8.04-9.81-8.04-9.81s-10.93 6.91-8.04 9.81h16.08ZM44.48 45.27v-6.3c0-1.64 4.1-2.47 4.1-2.47s4.1.83 4.1 2.47v6.2" class="cls-1"/><path d="M40.55 41.91V32.4h16.06v11.81M40.54 27.21h16.08v5.19H40.54zM56.62 27.21c3.01-3.01-8.04-9.81-8.04-9.81s-10.93 6.91-8.04 9.81h16.08ZM16.06 48.59h10.73v15.08H16.06zM26.34 46.06c-.25-.29-.52-.6-.83-.89-1.7-1.64-4.08-3.12-4.08-3.12s-2.43 1.54-4.12 3.22c-.64.62-1.16 1.27-1.41 1.85-.04.08-.06.13-.08.19-.13.39-.13.73.06 1.04v.02M27.09 47.45s-.02-.1-.04-.13M4.98 48.59h10.73v15.08H4.98z" class="cls-1"/><path d="M15.71 48.59c2.01-2.01-5.37-6.54-5.37-6.54s-7.3 4.61-5.37 6.54H15.7ZM43.21 48.59h10.73v15.08H43.21zM42.97 47.35s0 .02-.02.04c-.12.44-.06.87.27 1.19h10.73c2-2-5.37-6.53-5.37-6.53s-3.81 2.41-5.2 4.47v.02M54.38 48.59h10.63v15.08H54.38z" class="cls-1"/><path d="M65.01 48.59c1.95-2.01-5.21-6.54-5.21-6.54s-7.09 4.61-5.21 6.54h10.43Z" class="cls-1"/></g></g><path d="M0 0h70v70H0z" class="cls-2"/></g></svg>