<svg xmlns="http://www.w3.org/2000/svg" id="Layer_2" data-name="Layer 2" viewBox="0 0 70 70"><defs><style>.cls-1{stroke:#000;stroke-linecap:round;stroke-linejoin:round;fill:none}.cls-2,.cls-3{fill:none;stroke-width:0}.cls-3{fill:#f47887}</style></defs><g id="Layer_1-2" data-name="Layer 1"><g><path d="M26.79 21.52h2.63v5.83h-2.63zM31.19 21.52h2.63v5.83h-2.63zM35.51 21.52h2.63v5.83h-2.63zM39.55 21.52h2.63v5.83h-2.63z" class="cls-3"/><g><path d="M45.4 20.37H23.6l1.72-4.54h18.36l1.72 4.54zM29.19 53.6V41.77c0-2.33 5.81-3.5 5.81-3.5s5.81 1.17 5.81 3.5V53.6h4.01V33.76H23.6V53.6h5.59ZM23.78 29.26h21.05v3.18H23.78zM46.4 25.16c6.61-2.96 12.23-2.96 18.84 0v28.97c-6.61 1.38-12.23 1.38-18.84 0V25.16ZM3.76 25.16c6.61-2.96 12.23-2.96 18.84 0v28.97c-6.61 1.38-12.23 1.38-18.84 0V25.16Z" class="cls-3"/><path d="M29.19 53.6V41.77c0-2.33 5.81-3.5 5.81-3.5s5.81 1.17 5.81 3.5V53.6h5.59V32.45H23.6V53.6h5.59ZM23.6 27.74h22.8v4.7H23.6zM3.76 24.18c6.61-2.96 13.23-2.96 19.84 0v29.5a48.057 48.057 0 0 1-19.84 0v-29.5Z" class="cls-1"/><path d="M3.76 28.62c6.61-2.96 13.23-2.96 19.84 0M46.4 24.18c6.61-2.96 13.23-2.96 19.84 0v29.5a48.057 48.057 0 0 1-19.84 0v-29.5Z" class="cls-1"/><path d="M46.4 28.62c6.61-2.96 13.23-2.96 19.84 0M46.4 20.37H23.6l1.72-5.54h19.36l1.72 5.54zM26.46 20.37v7.37M43.53 20.37v7.37M35 20.37v7.37M30.81 20.37v7.37M39.38 20.37v7.37" class="cls-1"/></g></g><path d="M0 0h70v70H0z" class="cls-2"/></g></svg>